<?xml version="1.0" encoding="UTF-8" standalone="no"?>
<!-- This is a Stata 16.0 generated SVG file (http://www.stata.com) -->

<svg version="1.1" width="5.50in" height="4.00in" viewBox="0 0 3960 2880" xmlns="http://www.w3.org/2000/svg" xmlns:xlink="http://www.w3.org/1999/xlink">
	<desc>Stata Graph - Graph</desc>
	<rect x="0" y="0" width="3960" height="2880" style="fill:#EAF2F3;stroke:none"/>
	<rect x="0.00" y="0.00" width="3959.88" height="2880.00" style="fill:#FFFFFF"/>
	<rect x="2.88" y="2.88" width="3954.12" height="2874.24" style="fill:none;stroke:#EAF2F3;stroke-width:5.76"/>
	<rect x="290.81" y="100.86" width="3568.21" height="1992.81" style="fill:#FFFFFF"/>
	<rect x="293.69" y="103.74" width="3562.45" height="1987.05" style="fill:none;stroke:#FFFFFF;stroke-width:5.76"/>
	<line x1="290.81" y1="2030.31" x2="3859.02" y2="2030.31" style="stroke:#EAF2F3;stroke-width:8.64"/>
	<line x1="290.81" y1="1408.32" x2="3859.02" y2="1408.32" style="stroke:#EAF2F3;stroke-width:8.64"/>
	<line x1="290.81" y1="786.21" x2="3859.02" y2="786.21" style="stroke:#EAF2F3;stroke-width:8.64"/>
	<path d=" M667.01 1665.36 L823.43 1689.49 L979.85 1730.82 L1136.27 641.29 L1449.11 830.51 L1605.53 1696.29 L1761.95 1671.42 L1918.50 1417.85 L2074.92 1755.70 L2231.34 1645.06 L2387.76 1362.16 L2544.18 1405.23 L2700.60 999.93 L2857.02 1656.07 L3013.44 1693.70 L3169.86 1550.51 L3326.40 1034.71 L3482.82 1761.39 L3639.24 1779.33 L3795.66 1746.66" stroke-linejoin="round" style="fill:none;stroke:#800080;stroke-width:8.64"/>
	<path d=" M667.01 1929.45 L823.43 1881.43 L979.85 1502.12 L1136.27 1715.97 L1449.11 921.60 L1605.53 1593.95 L1761.95 1386.91 L1918.50 1788.61 L2074.92 1662.88 L2231.34 1570.44 L2387.76 1859.90 L2544.18 1715.48 L2700.60 577.81 L2857.02 1571.30 L3013.44 1793.32 L3169.86 1568.95 L3326.40 1686.64 L3482.82 1748.39 L3639.24 1641.35 L3795.66 1757.80" stroke-linejoin="round" style="fill:none;stroke:#808080;stroke-width:8.64"/>
	<path d=" M667.01 1970.90 L823.43 1937.37 L979.85 1771.17 L1136.27 1807.30 L1449.11 1104.13 L1605.53 1004.26 L1761.95 1289.64 L1918.50 1770.92 L2074.92 1771.29 L2231.34 1560.04 L2387.76 1705.45 L2544.18 1677.61 L2700.60 947.46 L2857.02 1604.59 L3013.44 1843.69 L3169.86 1365.01 L3326.40 1683.80 L3482.82 1531.58 L3639.24 1672.41 L3795.66 1942.19" stroke-linejoin="round" style="fill:none;stroke:#804000;stroke-width:8.64"/>
	<line x1="290.81" y1="2093.67" x2="290.81" y2="100.86" style="stroke:#000000;stroke-width:5.76"/>
	<line x1="290.81" y1="2030.31" x2="250.84" y2="2030.31" style="stroke:#000000;stroke-width:5.76"/>
	<text x="200.73" y="2030.31" style="font-family:'Helvetica';font-size:99.99px;fill:#000000" transform="rotate(-90 200.73,2030.31)" text-anchor="middle">0</text>
	<line x1="290.81" y1="1408.32" x2="250.84" y2="1408.32" style="stroke:#000000;stroke-width:5.76"/>
	<text x="200.73" y="1408.32" style="font-family:'Helvetica';font-size:99.99px;fill:#000000" transform="rotate(-90 200.73,1408.32)" text-anchor="middle">5</text>
	<line x1="290.81" y1="786.21" x2="250.84" y2="786.21" style="stroke:#000000;stroke-width:5.76"/>
	<text x="200.73" y="786.21" style="font-family:'Helvetica';font-size:99.99px;fill:#000000" transform="rotate(-90 200.73,786.21)" text-anchor="middle">10</text>
	<line x1="290.81" y1="164.22" x2="250.84" y2="164.22" style="stroke:#000000;stroke-width:5.76"/>
	<text x="200.73" y="164.22" style="font-family:'Helvetica';font-size:99.99px;fill:#000000" transform="rotate(-90 200.73,164.22)" text-anchor="middle">15</text>
	<line x1="290.81" y1="2093.67" x2="3859.02" y2="2093.67" style="stroke:#000000;stroke-width:5.76"/>
	<line x1="354.17" y1="2093.67" x2="354.17" y2="2133.64" style="stroke:#000000;stroke-width:5.76"/>
	<text x="354.17" y="2223.62" style="font-family:'Helvetica';font-size:99.99px;fill:#000000" text-anchor="middle">2000</text>
	<line x1="1136.27" y1="2093.67" x2="1136.27" y2="2133.64" style="stroke:#000000;stroke-width:5.76"/>
	<text x="1136.27" y="2223.62" style="font-family:'Helvetica';font-size:99.99px;fill:#000000" text-anchor="middle">2005</text>
	<line x1="1918.50" y1="2093.67" x2="1918.50" y2="2133.64" style="stroke:#000000;stroke-width:5.76"/>
	<text x="1918.50" y="2223.62" style="font-family:'Helvetica';font-size:99.99px;fill:#000000" text-anchor="middle">2010</text>
	<line x1="2700.72" y1="2093.67" x2="2700.72" y2="2133.64" style="stroke:#000000;stroke-width:5.76"/>
	<text x="2700.72" y="2223.62" style="font-family:'Helvetica';font-size:99.99px;fill:#000000" text-anchor="middle">2015</text>
	<line x1="3482.82" y1="2093.67" x2="3482.82" y2="2133.64" style="stroke:#000000;stroke-width:5.76"/>
	<text x="3482.82" y="2223.62" style="font-family:'Helvetica';font-size:99.99px;fill:#000000" text-anchor="middle">2020</text>
	<text x="2074.92" y="2333.64" style="font-family:'Helvetica';font-size:99.99px;fill:#000000" text-anchor="middle">time</text>
	<rect x="1326.11" y="2418.27" width="1497.62" height="326.34" style="fill:#FFFFFF"/>
	<rect x="1328.98" y="2421.15" width="1491.86" height="320.58" style="fill:none;stroke:#000000;stroke-width:5.76"/>
	<line x1="1369.29" y1="2511.46" x2="1743.64" y2="2511.46" style="stroke:#800080;stroke-width:8.64"/>
	<line x1="2144.96" y1="2511.46" x2="2519.30" y2="2511.46" style="stroke:#808080;stroke-width:8.64"/>
	<line x1="1369.29" y1="2651.43" x2="1743.64" y2="2651.43" style="stroke:#804000;stroke-width:8.64"/>
	<text x="1803.66" y="2546.49" style="font-family:'Helvetica';font-size:99.99px;fill:#000000">var1</text>
	<text x="2579.32" y="2546.49" style="font-family:'Helvetica';font-size:99.99px;fill:#000000">var2</text>
	<text x="1803.66" y="2686.46" style="font-family:'Helvetica';font-size:99.99px;fill:#000000">var3</text>
</svg>
