<?xml version="1.0" encoding="utf-8" standalone="no"?>
<!DOCTYPE svg PUBLIC "-//W3C//DTD SVG 1.1//EN"
  "http://www.w3.org/Graphics/SVG/1.1/DTD/svg11.dtd">
<svg xmlns:xlink="http://www.w3.org/1999/xlink" width="7200pt" height="1440pt" viewBox="0 0 7200 1440" xmlns="http://www.w3.org/2000/svg" version="1.1">
 <metadata>
  <rdf:RDF xmlns:dc="http://purl.org/dc/elements/1.1/" xmlns:cc="http://creativecommons.org/ns#" xmlns:rdf="http://www.w3.org/1999/02/22-rdf-syntax-ns#">
   <cc:Work>
    <dc:type rdf:resource="http://purl.org/dc/dcmitype/StillImage"/>
    <dc:date>2022-11-27T15:50:50.808425</dc:date>
    <dc:format>image/svg+xml</dc:format>
    <dc:creator>
     <cc:Agent>
      <dc:title>Matplotlib v3.5.1, https://matplotlib.org/</dc:title>
     </cc:Agent>
    </dc:creator>
   </cc:Work>
  </rdf:RDF>
 </metadata>
 <defs>
  <style type="text/css">*{stroke-linejoin: round; stroke-linecap: butt}</style>
 </defs>
 <g id="figure_1">
  <g id="patch_1">
   <path d="M 0 1440 
L 7200 1440 
L 7200 0 
L 0 0 
L 0 1440 
z
" style="fill: none"/>
  </g>
  <g id="axes_1">
   <g id="patch_2">
    <path d="M 900 1260 
L 2541.176471 1260 
L 2541.176471 172.8 
L 900 172.8 
z
" style="fill: #ffffff"/>
   </g>
   <g id="PathCollection_1">
    <defs>
     <path id="m4c0fbe14bc" d="M 0 8.660254 
C 2.296726 8.660254 4.499694 7.747755 6.123724 6.123724 
C 7.747755 4.499694 8.660254 2.296726 8.660254 0 
C 8.660254 -2.296726 7.747755 -4.499694 6.123724 -6.123724 
C 4.499694 -7.747755 2.296726 -8.660254 0 -8.660254 
C -2.296726 -8.660254 -4.499694 -7.747755 -6.123724 -6.123724 
C -7.747755 -4.499694 -8.660254 -2.296726 -8.660254 0 
C -8.660254 2.296726 -7.747755 4.499694 -6.123724 6.123724 
C -4.499694 7.747755 -2.296726 8.660254 0 8.660254 
z
" style="stroke: #ff0000"/>
    </defs>
    <g clip-path="url(#pb6276f90bc)">
     <use xlink:href="#m4c0fbe14bc" x="900" y="795.96097" style="fill: #ff0000; stroke: #ff0000"/>
     <use xlink:href="#m4c0fbe14bc" x="982.058824" y="1063.191971" style="fill: #ff0000; stroke: #ff0000"/>
     <use xlink:href="#m4c0fbe14bc" x="1064.117647" y="581.307125" style="fill: #ff0000; stroke: #ff0000"/>
     <use xlink:href="#m4c0fbe14bc" x="1146.176471" y="875.7392" style="fill: #ff0000; stroke: #ff0000"/>
     <use xlink:href="#m4c0fbe14bc" x="1228.235294" y="826.464411" style="fill: #ff0000; stroke: #ff0000"/>
     <use xlink:href="#m4c0fbe14bc" x="1310.294118" y="1210.581818" style="fill: #ff0000; stroke: #ff0000"/>
     <use xlink:href="#m4c0fbe14bc" x="1392.352941" y="222.218182" style="fill: #ff0000; stroke: #ff0000"/>
     <use xlink:href="#m4c0fbe14bc" x="1474.411765" y="644.573521" style="fill: #ff0000; stroke: #ff0000"/>
     <use xlink:href="#m4c0fbe14bc" x="1556.470588" y="826.464411" style="fill: #ff0000; stroke: #ff0000"/>
     <use xlink:href="#m4c0fbe14bc" x="1638.529412" y="794.5705" style="fill: #ff0000; stroke: #ff0000"/>
     <use xlink:href="#m4c0fbe14bc" x="1720.588235" y="305.820206" style="fill: #ff0000; stroke: #ff0000"/>
     <use xlink:href="#m4c0fbe14bc" x="1802.647059" y="491.882506" style="fill: #ff0000; stroke: #ff0000"/>
     <use xlink:href="#m4c0fbe14bc" x="1884.705882" y="823.596566" style="fill: #ff0000; stroke: #ff0000"/>
     <use xlink:href="#m4c0fbe14bc" x="1966.764706" y="930.488967" style="fill: #ff0000; stroke: #ff0000"/>
     <use xlink:href="#m4c0fbe14bc" x="2048.823529" y="934.399664" style="fill: #ff0000; stroke: #ff0000"/>
     <use xlink:href="#m4c0fbe14bc" x="2130.882353" y="874.609443" style="fill: #ff0000; stroke: #ff0000"/>
     <use xlink:href="#m4c0fbe14bc" x="2212.941176" y="404.282881" style="fill: #ff0000; stroke: #ff0000"/>
     <use xlink:href="#m4c0fbe14bc" x="2295" y="682.55074" style="fill: #ff0000; stroke: #ff0000"/>
     <use xlink:href="#m4c0fbe14bc" x="2377.058824" y="794.657404" style="fill: #ff0000; stroke: #ff0000"/>
     <use xlink:href="#m4c0fbe14bc" x="2459.117647" y="827.159646" style="fill: #ff0000; stroke: #ff0000"/>
     <use xlink:href="#m4c0fbe14bc" x="2541.176471" y="835.589372" style="fill: #ff0000; stroke: #ff0000"/>
    </g>
   </g>
   <g id="matplotlib.axis_1">
    <g id="xtick_1">
     <g id="line2d_1">
      <defs>
       <path id="m17f51bda77" d="M 0 0 
L 0 3.5 
" style="stroke: #000000; stroke-width: 0.8"/>
      </defs>
      <g>
       <use xlink:href="#m17f51bda77" x="900" y="1260" style="stroke: #000000; stroke-width: 0.8"/>
      </g>
     </g>
     <g id="text_1">
      <!-- 2001 -->
      <g transform="translate(863.72998 1346.769623)rotate(-30)scale(0.5 -0.5)">
       <defs>
        <path id="SimHei-32" d="M 300 250 
Q 325 625 650 925 
Q 975 1225 1475 1862 
Q 1975 2500 2125 2850 
Q 2275 3200 2237 3450 
Q 2200 3700 2000 3862 
Q 1800 4025 1537 4000 
Q 1275 3975 1037 3800 
Q 800 3625 675 3275 
L 200 3350 
Q 400 3925 712 4187 
Q 1025 4450 1450 4475 
Q 1700 4500 1900 4462 
Q 2100 4425 2312 4287 
Q 2525 4150 2662 3875 
Q 2800 3600 2762 3212 
Q 2725 2825 2375 2287 
Q 2025 1750 1025 600 
L 2825 600 
L 2825 150 
L 300 150 
L 300 250 
z
" transform="scale(0.015625)"/>
        <path id="SimHei-30" d="M 225 2537 
Q 250 3200 412 3587 
Q 575 3975 875 4225 
Q 1175 4475 1612 4475 
Q 2050 4475 2375 4112 
Q 2700 3750 2800 3200 
Q 2900 2650 2862 1937 
Q 2825 1225 2612 775 
Q 2400 325 1975 150 
Q 1550 -25 1125 187 
Q 700 400 525 750 
Q 350 1100 275 1487 
Q 200 1875 225 2537 
z
M 750 2687 
Q 675 2000 800 1462 
Q 925 925 1212 700 
Q 1500 475 1800 612 
Q 2100 750 2237 1162 
Q 2375 1575 2375 2062 
Q 2375 2550 2337 2950 
Q 2300 3350 2112 3675 
Q 1925 4000 1612 4012 
Q 1300 4025 1062 3700 
Q 825 3375 750 2687 
z
" transform="scale(0.015625)"/>
        <path id="SimHei-31" d="M 1400 3600 
Q 1075 3275 575 2975 
L 575 3450 
Q 1200 3875 1600 4450 
L 1900 4450 
L 1900 150 
L 1400 150 
L 1400 3600 
z
" transform="scale(0.015625)"/>
       </defs>
       <use xlink:href="#SimHei-32"/>
       <use xlink:href="#SimHei-30" x="50"/>
       <use xlink:href="#SimHei-30" x="100"/>
       <use xlink:href="#SimHei-31" x="150"/>
      </g>
     </g>
    </g>
    <g id="xtick_2">
     <g id="line2d_2">
      <g>
       <use xlink:href="#m17f51bda77" x="982.058824" y="1260" style="stroke: #000000; stroke-width: 0.8"/>
      </g>
     </g>
     <g id="text_2">
      <!-- 2002 -->
      <g transform="translate(945.788803 1346.769623)rotate(-30)scale(0.5 -0.5)">
       <use xlink:href="#SimHei-32"/>
       <use xlink:href="#SimHei-30" x="50"/>
       <use xlink:href="#SimHei-30" x="100"/>
       <use xlink:href="#SimHei-32" x="150"/>
      </g>
     </g>
    </g>
    <g id="xtick_3">
     <g id="line2d_3">
      <g>
       <use xlink:href="#m17f51bda77" x="1064.117647" y="1260" style="stroke: #000000; stroke-width: 0.8"/>
      </g>
     </g>
     <g id="text_3">
      <!-- 2003 -->
      <g transform="translate(1027.847627 1346.769623)rotate(-30)scale(0.5 -0.5)">
       <defs>
        <path id="SimHei-33" d="M 250 1225 
L 700 1300 
Q 800 975 1025 762 
Q 1250 550 1587 562 
Q 1925 575 2125 837 
Q 2325 1100 2300 1437 
Q 2275 1775 2037 1962 
Q 1800 2150 1275 2225 
L 1275 2550 
Q 1800 2600 2037 2825 
Q 2275 3050 2250 3412 
Q 2225 3775 1925 3937 
Q 1625 4100 1287 3975 
Q 950 3850 750 3275 
L 300 3350 
Q 450 3800 712 4100 
Q 975 4400 1425 4450 
Q 1875 4500 2212 4337 
Q 2550 4175 2687 3837 
Q 2825 3500 2725 3100 
Q 2625 2700 2150 2400 
Q 2500 2250 2687 1950 
Q 2875 1650 2812 1162 
Q 2750 675 2375 375 
Q 2000 75 1525 87 
Q 1050 100 700 387 
Q 350 675 250 1225 
z
" transform="scale(0.015625)"/>
       </defs>
       <use xlink:href="#SimHei-32"/>
       <use xlink:href="#SimHei-30" x="50"/>
       <use xlink:href="#SimHei-30" x="100"/>
       <use xlink:href="#SimHei-33" x="150"/>
      </g>
     </g>
    </g>
    <g id="xtick_4">
     <g id="line2d_4">
      <g>
       <use xlink:href="#m17f51bda77" x="1146.176471" y="1260" style="stroke: #000000; stroke-width: 0.8"/>
      </g>
     </g>
     <g id="text_4">
      <!-- 2004 -->
      <g transform="translate(1109.90645 1346.769623)rotate(-30)scale(0.5 -0.5)">
       <defs>
        <path id="SimHei-34" d="M 2000 1100 
L 75 1100 
L 75 1525 
L 2100 4450 
L 2475 4450 
L 2475 1525 
L 3075 1525 
L 3075 1100 
L 2475 1100 
L 2475 150 
L 2000 150 
L 2000 1100 
z
M 2000 1525 
L 2000 3500 
L 600 1525 
L 2000 1525 
z
" transform="scale(0.015625)"/>
       </defs>
       <use xlink:href="#SimHei-32"/>
       <use xlink:href="#SimHei-30" x="50"/>
       <use xlink:href="#SimHei-30" x="100"/>
       <use xlink:href="#SimHei-34" x="150"/>
      </g>
     </g>
    </g>
    <g id="xtick_5">
     <g id="line2d_5">
      <g>
       <use xlink:href="#m17f51bda77" x="1228.235294" y="1260" style="stroke: #000000; stroke-width: 0.8"/>
      </g>
     </g>
     <g id="text_5">
      <!-- 2005 -->
      <g transform="translate(1191.965274 1346.769623)rotate(-30)scale(0.5 -0.5)">
       <defs>
        <path id="SimHei-35" d="M 550 1325 
Q 725 650 1150 575 
Q 1575 500 1837 662 
Q 2100 825 2212 1087 
Q 2325 1350 2312 1675 
Q 2300 2000 2137 2225 
Q 1975 2450 1725 2525 
Q 1475 2600 1162 2525 
Q 850 2450 650 2175 
L 225 2225 
Q 275 2375 700 4375 
L 2675 4375 
L 2675 3925 
L 1075 3925 
Q 950 3250 825 2850 
Q 1200 3025 1525 3012 
Q 1850 3000 2150 2862 
Q 2450 2725 2587 2487 
Q 2725 2250 2787 2012 
Q 2850 1775 2837 1500 
Q 2825 1225 2725 937 
Q 2625 650 2425 462 
Q 2225 275 1937 162 
Q 1650 50 1275 75 
Q 900 100 562 350 
Q 225 600 100 1200 
L 550 1325 
z
" transform="scale(0.015625)"/>
       </defs>
       <use xlink:href="#SimHei-32"/>
       <use xlink:href="#SimHei-30" x="50"/>
       <use xlink:href="#SimHei-30" x="100"/>
       <use xlink:href="#SimHei-35" x="150"/>
      </g>
     </g>
    </g>
    <g id="xtick_6">
     <g id="line2d_6">
      <g>
       <use xlink:href="#m17f51bda77" x="1310.294118" y="1260" style="stroke: #000000; stroke-width: 0.8"/>
      </g>
     </g>
     <g id="text_6">
      <!-- 2006 -->
      <g transform="translate(1274.024097 1346.769623)rotate(-30)scale(0.5 -0.5)">
       <defs>
        <path id="SimHei-36" d="M 250 1612 
Q 275 1975 387 2225 
Q 500 2475 725 2850 
L 1750 4450 
L 2325 4450 
L 1275 2800 
Q 1950 2975 2350 2750 
Q 2750 2525 2887 2237 
Q 3025 1950 3037 1612 
Q 3050 1275 2937 950 
Q 2825 625 2537 362 
Q 2250 100 1737 75 
Q 1225 50 862 262 
Q 500 475 362 862 
Q 225 1250 250 1612 
z
M 1025 787 
Q 1250 550 1625 525 
Q 2000 500 2250 775 
Q 2500 1050 2500 1575 
Q 2500 2100 2187 2300 
Q 1875 2500 1487 2450 
Q 1100 2400 925 2075 
Q 750 1750 775 1387 
Q 800 1025 1025 787 
z
" transform="scale(0.015625)"/>
       </defs>
       <use xlink:href="#SimHei-32"/>
       <use xlink:href="#SimHei-30" x="50"/>
       <use xlink:href="#SimHei-30" x="100"/>
       <use xlink:href="#SimHei-36" x="150"/>
      </g>
     </g>
    </g>
    <g id="xtick_7">
     <g id="line2d_7">
      <g>
       <use xlink:href="#m17f51bda77" x="1392.352941" y="1260" style="stroke: #000000; stroke-width: 0.8"/>
      </g>
     </g>
     <g id="text_7">
      <!-- 2007 -->
      <g transform="translate(1356.082921 1346.769623)rotate(-30)scale(0.5 -0.5)">
       <defs>
        <path id="SimHei-37" d="M 850 150 
Q 1300 2050 2425 3925 
L 275 3925 
L 275 4375 
L 2950 4375 
L 2950 3950 
Q 1775 2050 1400 150 
L 850 150 
z
" transform="scale(0.015625)"/>
       </defs>
       <use xlink:href="#SimHei-32"/>
       <use xlink:href="#SimHei-30" x="50"/>
       <use xlink:href="#SimHei-30" x="100"/>
       <use xlink:href="#SimHei-37" x="150"/>
      </g>
     </g>
    </g>
    <g id="xtick_8">
     <g id="line2d_8">
      <g>
       <use xlink:href="#m17f51bda77" x="1474.411765" y="1260" style="stroke: #000000; stroke-width: 0.8"/>
      </g>
     </g>
     <g id="text_8">
      <!-- 2008 -->
      <g transform="translate(1438.141745 1346.769623)rotate(-30)scale(0.5 -0.5)">
       <defs>
        <path id="SimHei-38" d="M 175 1375 
Q 175 1675 325 1962 
Q 475 2250 825 2425 
Q 525 2600 425 2812 
Q 325 3025 312 3300 
Q 300 3575 387 3775 
Q 475 3975 650 4150 
Q 825 4325 1037 4387 
Q 1250 4450 1500 4450 
Q 1750 4450 1950 4400 
Q 2150 4350 2375 4187 
Q 2600 4025 2700 3725 
Q 2800 3425 2687 3025 
Q 2575 2625 2100 2400 
Q 2525 2275 2700 2012 
Q 2875 1750 2875 1375 
Q 2875 1000 2762 775 
Q 2650 550 2512 400 
Q 2375 250 2137 162 
Q 1900 75 1537 75 
Q 1175 75 912 162 
Q 650 250 475 425 
Q 300 600 237 837 
Q 175 1075 175 1375 
z
M 687 1400 
Q 675 1100 787 875 
Q 900 650 1200 587 
Q 1500 525 1825 600 
Q 2150 675 2275 950 
Q 2400 1225 2362 1500 
Q 2325 1775 2050 1962 
Q 1775 2150 1450 2125 
Q 1125 2100 912 1900 
Q 700 1700 687 1400 
z
M 775 3350 
Q 775 3100 950 2875 
Q 1125 2650 1500 2650 
Q 1875 2650 2062 2875 
Q 2250 3100 2237 3412 
Q 2225 3725 2012 3875 
Q 1800 4025 1437 4000 
Q 1075 3975 925 3787 
Q 775 3600 775 3350 
z
" transform="scale(0.015625)"/>
       </defs>
       <use xlink:href="#SimHei-32"/>
       <use xlink:href="#SimHei-30" x="50"/>
       <use xlink:href="#SimHei-30" x="100"/>
       <use xlink:href="#SimHei-38" x="150"/>
      </g>
     </g>
    </g>
    <g id="xtick_9">
     <g id="line2d_9">
      <g>
       <use xlink:href="#m17f51bda77" x="1556.470588" y="1260" style="stroke: #000000; stroke-width: 0.8"/>
      </g>
     </g>
     <g id="text_9">
      <!-- 2009 -->
      <g transform="translate(1520.200568 1346.769623)rotate(-30)scale(0.5 -0.5)">
       <defs>
        <path id="SimHei-39" d="M 800 75 
Q 1350 1000 1700 1750 
Q 1075 1650 662 1912 
Q 250 2175 162 2625 
Q 75 3075 175 3437 
Q 275 3800 487 4037 
Q 700 4275 1000 4375 
Q 1300 4475 1537 4475 
Q 1775 4475 2025 4375 
Q 2275 4275 2475 4075 
Q 2675 3875 2750 3662 
Q 2825 3450 2825 3112 
Q 2825 2775 2575 2250 
Q 2325 1725 1350 75 
L 800 75 
z
M 662 2875 
Q 700 2550 937 2337 
Q 1175 2125 1450 2150 
Q 1725 2175 1887 2300 
Q 2050 2425 2200 2725 
Q 2300 3100 2250 3362 
Q 2200 3625 1987 3800 
Q 1775 3975 1525 3975 
Q 1375 4000 1137 3900 
Q 900 3800 762 3500 
Q 625 3200 662 2875 
z
" transform="scale(0.015625)"/>
       </defs>
       <use xlink:href="#SimHei-32"/>
       <use xlink:href="#SimHei-30" x="50"/>
       <use xlink:href="#SimHei-30" x="100"/>
       <use xlink:href="#SimHei-39" x="150"/>
      </g>
     </g>
    </g>
    <g id="xtick_10">
     <g id="line2d_10">
      <g>
       <use xlink:href="#m17f51bda77" x="1638.529412" y="1260" style="stroke: #000000; stroke-width: 0.8"/>
      </g>
     </g>
     <g id="text_10">
      <!-- 2010 -->
      <g transform="translate(1602.259392 1346.769623)rotate(-30)scale(0.5 -0.5)">
       <use xlink:href="#SimHei-32"/>
       <use xlink:href="#SimHei-30" x="50"/>
       <use xlink:href="#SimHei-31" x="100"/>
       <use xlink:href="#SimHei-30" x="150"/>
      </g>
     </g>
    </g>
    <g id="xtick_11">
     <g id="line2d_11">
      <g>
       <use xlink:href="#m17f51bda77" x="1720.588235" y="1260" style="stroke: #000000; stroke-width: 0.8"/>
      </g>
     </g>
     <g id="text_11">
      <!-- 2011 -->
      <g transform="translate(1684.318215 1346.769623)rotate(-30)scale(0.5 -0.5)">
       <use xlink:href="#SimHei-32"/>
       <use xlink:href="#SimHei-30" x="50"/>
       <use xlink:href="#SimHei-31" x="100"/>
       <use xlink:href="#SimHei-31" x="150"/>
      </g>
     </g>
    </g>
    <g id="xtick_12">
     <g id="line2d_12">
      <g>
       <use xlink:href="#m17f51bda77" x="1802.647059" y="1260" style="stroke: #000000; stroke-width: 0.8"/>
      </g>
     </g>
     <g id="text_12">
      <!-- 2012 -->
      <g transform="translate(1766.377039 1346.769623)rotate(-30)scale(0.5 -0.5)">
       <use xlink:href="#SimHei-32"/>
       <use xlink:href="#SimHei-30" x="50"/>
       <use xlink:href="#SimHei-31" x="100"/>
       <use xlink:href="#SimHei-32" x="150"/>
      </g>
     </g>
    </g>
    <g id="xtick_13">
     <g id="line2d_13">
      <g>
       <use xlink:href="#m17f51bda77" x="1884.705882" y="1260" style="stroke: #000000; stroke-width: 0.8"/>
      </g>
     </g>
     <g id="text_13">
      <!-- 2013 -->
      <g transform="translate(1848.435862 1346.769623)rotate(-30)scale(0.5 -0.5)">
       <use xlink:href="#SimHei-32"/>
       <use xlink:href="#SimHei-30" x="50"/>
       <use xlink:href="#SimHei-31" x="100"/>
       <use xlink:href="#SimHei-33" x="150"/>
      </g>
     </g>
    </g>
    <g id="xtick_14">
     <g id="line2d_14">
      <g>
       <use xlink:href="#m17f51bda77" x="1966.764706" y="1260" style="stroke: #000000; stroke-width: 0.8"/>
      </g>
     </g>
     <g id="text_14">
      <!-- 2014 -->
      <g transform="translate(1930.494686 1346.769623)rotate(-30)scale(0.5 -0.5)">
       <use xlink:href="#SimHei-32"/>
       <use xlink:href="#SimHei-30" x="50"/>
       <use xlink:href="#SimHei-31" x="100"/>
       <use xlink:href="#SimHei-34" x="150"/>
      </g>
     </g>
    </g>
    <g id="xtick_15">
     <g id="line2d_15">
      <g>
       <use xlink:href="#m17f51bda77" x="2048.823529" y="1260" style="stroke: #000000; stroke-width: 0.8"/>
      </g>
     </g>
     <g id="text_15">
      <!-- 2015 -->
      <g transform="translate(2012.553509 1346.769623)rotate(-30)scale(0.5 -0.5)">
       <use xlink:href="#SimHei-32"/>
       <use xlink:href="#SimHei-30" x="50"/>
       <use xlink:href="#SimHei-31" x="100"/>
       <use xlink:href="#SimHei-35" x="150"/>
      </g>
     </g>
    </g>
    <g id="xtick_16">
     <g id="line2d_16">
      <g>
       <use xlink:href="#m17f51bda77" x="2130.882353" y="1260" style="stroke: #000000; stroke-width: 0.8"/>
      </g>
     </g>
     <g id="text_16">
      <!-- 2016 -->
      <g transform="translate(2094.612333 1346.769623)rotate(-30)scale(0.5 -0.5)">
       <use xlink:href="#SimHei-32"/>
       <use xlink:href="#SimHei-30" x="50"/>
       <use xlink:href="#SimHei-31" x="100"/>
       <use xlink:href="#SimHei-36" x="150"/>
      </g>
     </g>
    </g>
    <g id="xtick_17">
     <g id="line2d_17">
      <g>
       <use xlink:href="#m17f51bda77" x="2212.941176" y="1260" style="stroke: #000000; stroke-width: 0.8"/>
      </g>
     </g>
     <g id="text_17">
      <!-- 2017 -->
      <g transform="translate(2176.671156 1346.769623)rotate(-30)scale(0.5 -0.5)">
       <use xlink:href="#SimHei-32"/>
       <use xlink:href="#SimHei-30" x="50"/>
       <use xlink:href="#SimHei-31" x="100"/>
       <use xlink:href="#SimHei-37" x="150"/>
      </g>
     </g>
    </g>
    <g id="xtick_18">
     <g id="line2d_18">
      <g>
       <use xlink:href="#m17f51bda77" x="2295" y="1260" style="stroke: #000000; stroke-width: 0.8"/>
      </g>
     </g>
     <g id="text_18">
      <!-- 2018 -->
      <g transform="translate(2258.72998 1346.769623)rotate(-30)scale(0.5 -0.5)">
       <use xlink:href="#SimHei-32"/>
       <use xlink:href="#SimHei-30" x="50"/>
       <use xlink:href="#SimHei-31" x="100"/>
       <use xlink:href="#SimHei-38" x="150"/>
      </g>
     </g>
    </g>
    <g id="xtick_19">
     <g id="line2d_19">
      <g>
       <use xlink:href="#m17f51bda77" x="2377.058824" y="1260" style="stroke: #000000; stroke-width: 0.8"/>
      </g>
     </g>
     <g id="text_19">
      <!-- 2019 -->
      <g transform="translate(2340.788803 1346.769623)rotate(-30)scale(0.5 -0.5)">
       <use xlink:href="#SimHei-32"/>
       <use xlink:href="#SimHei-30" x="50"/>
       <use xlink:href="#SimHei-31" x="100"/>
       <use xlink:href="#SimHei-39" x="150"/>
      </g>
     </g>
    </g>
    <g id="xtick_20">
     <g id="line2d_20">
      <g>
       <use xlink:href="#m17f51bda77" x="2459.117647" y="1260" style="stroke: #000000; stroke-width: 0.8"/>
      </g>
     </g>
     <g id="text_20">
      <!-- 2020 -->
      <g transform="translate(2422.847627 1346.769623)rotate(-30)scale(0.5 -0.5)">
       <use xlink:href="#SimHei-32"/>
       <use xlink:href="#SimHei-30" x="50"/>
       <use xlink:href="#SimHei-32" x="100"/>
       <use xlink:href="#SimHei-30" x="150"/>
      </g>
     </g>
    </g>
    <g id="xtick_21">
     <g id="line2d_21">
      <g>
       <use xlink:href="#m17f51bda77" x="2541.176471" y="1260" style="stroke: #000000; stroke-width: 0.8"/>
      </g>
     </g>
     <g id="text_21">
      <!-- 2021 -->
      <g transform="translate(2504.90645 1346.769623)rotate(-30)scale(0.5 -0.5)">
       <use xlink:href="#SimHei-32"/>
       <use xlink:href="#SimHei-30" x="50"/>
       <use xlink:href="#SimHei-32" x="100"/>
       <use xlink:href="#SimHei-31" x="150"/>
      </g>
     </g>
    </g>
   </g>
   <g id="matplotlib.axis_2">
    <g id="ytick_1">
     <g id="line2d_22">
      <defs>
       <path id="m0f4f0f8870" d="M 0 0 
L -3.5 0 
" style="stroke: #000000; stroke-width: 0.8"/>
      </defs>
      <g>
       <use xlink:href="#m0f4f0f8870" x="900" y="1116.725076" style="stroke: #000000; stroke-width: 0.8"/>
      </g>
     </g>
     <g id="text_22">
      <!-- -20 -->
      <g transform="translate(833 1130.475076)scale(0.4 -0.4)">
       <defs>
        <path id="SimHei-2d" d="M 2975 2125 
L 125 2125 
L 125 2525 
L 2975 2525 
L 2975 2125 
z
" transform="scale(0.015625)"/>
       </defs>
       <use xlink:href="#SimHei-2d"/>
       <use xlink:href="#SimHei-32" x="50"/>
       <use xlink:href="#SimHei-30" x="100"/>
      </g>
     </g>
    </g>
    <g id="ytick_2">
     <g id="line2d_23">
      <g>
       <use xlink:href="#m0f4f0f8870" x="900" y="942.916295" style="stroke: #000000; stroke-width: 0.8"/>
      </g>
     </g>
     <g id="text_23">
      <!-- 0 -->
      <g transform="translate(873 956.666295)scale(0.4 -0.4)">
       <use xlink:href="#SimHei-30"/>
      </g>
     </g>
    </g>
    <g id="ytick_3">
     <g id="line2d_24">
      <g>
       <use xlink:href="#m0f4f0f8870" x="900" y="769.107513" style="stroke: #000000; stroke-width: 0.8"/>
      </g>
     </g>
     <g id="text_24">
      <!-- 20 -->
      <g transform="translate(853 782.857513)scale(0.4 -0.4)">
       <use xlink:href="#SimHei-32"/>
       <use xlink:href="#SimHei-30" x="50"/>
      </g>
     </g>
    </g>
    <g id="ytick_4">
     <g id="line2d_25">
      <g>
       <use xlink:href="#m0f4f0f8870" x="900" y="595.298731" style="stroke: #000000; stroke-width: 0.8"/>
      </g>
     </g>
     <g id="text_25">
      <!-- 40 -->
      <g transform="translate(853 609.048731)scale(0.4 -0.4)">
       <use xlink:href="#SimHei-34"/>
       <use xlink:href="#SimHei-30" x="50"/>
      </g>
     </g>
    </g>
    <g id="ytick_5">
     <g id="line2d_26">
      <g>
       <use xlink:href="#m0f4f0f8870" x="900" y="421.48995" style="stroke: #000000; stroke-width: 0.8"/>
      </g>
     </g>
     <g id="text_26">
      <!-- 60 -->
      <g transform="translate(853 435.23995)scale(0.4 -0.4)">
       <use xlink:href="#SimHei-36"/>
       <use xlink:href="#SimHei-30" x="50"/>
      </g>
     </g>
    </g>
    <g id="ytick_6">
     <g id="line2d_27">
      <g>
       <use xlink:href="#m0f4f0f8870" x="900" y="247.681168" style="stroke: #000000; stroke-width: 0.8"/>
      </g>
     </g>
     <g id="text_27">
      <!-- 80 -->
      <g transform="translate(853 261.431168)scale(0.4 -0.4)">
       <use xlink:href="#SimHei-38"/>
       <use xlink:href="#SimHei-30" x="50"/>
      </g>
     </g>
    </g>
   </g>
   <g id="patch_3">
    <path d="M 900 1260 
L 900 172.8 
" style="fill: none; stroke: #000000; stroke-width: 0.8; stroke-linejoin: miter; stroke-linecap: square"/>
   </g>
   <g id="patch_4">
    <path d="M 2541.176471 1260 
L 2541.176471 172.8 
" style="fill: none; stroke: #000000; stroke-width: 0.8; stroke-linejoin: miter; stroke-linecap: square"/>
   </g>
   <g id="patch_5">
    <path d="M 900 1260 
L 2541.176471 1260 
" style="fill: none; stroke: #000000; stroke-width: 0.8; stroke-linejoin: miter; stroke-linecap: square"/>
   </g>
   <g id="patch_6">
    <path d="M 900 172.8 
L 2541.176471 172.8 
" style="fill: none; stroke: #000000; stroke-width: 0.8; stroke-linejoin: miter; stroke-linecap: square"/>
   </g>
   <g id="text_28">
    <!-- 每股收益-基本(%) -->
    <g transform="translate(1520.588235 166.55)scale(0.5 -0.5)">
     <defs>
      <path id="SimHei-6bcf" d="M 5225 3650 
Q 5175 3150 5150 2675 
L 5125 2200 
Q 5525 2200 6000 2225 
L 6000 1775 
Q 5625 1800 5100 1800 
L 5050 650 
Q 5325 650 5700 675 
L 5700 225 
Q 5400 250 5025 250 
Q 5000 -275 4775 -425 
Q 4550 -575 4000 -650 
Q 3950 -400 3775 -125 
Q 4375 -125 4475 -50 
Q 4575 25 4575 250 
L 1400 250 
L 1500 1100 
L 1550 1800 
L 1275 1800 
Q 825 1800 550 1775 
L 550 2225 
Q 975 2200 1275 2200 
L 1575 2200 
L 1625 2825 
L 1675 3650 
L 5225 3650 
z
M 2350 5000 
Q 2175 4825 2050 4600 
L 4875 4600 
Q 5275 4600 5775 4625 
L 5775 4175 
Q 5275 4200 4875 4200 
L 1825 4200 
L 1375 3625 
Q 1125 3325 775 2975 
Q 600 3175 350 3300 
Q 725 3575 1150 4112 
Q 1575 4650 1825 5250 
Q 2125 5075 2350 5000 
z
M 1975 1800 
L 1875 650 
L 4625 650 
L 4675 1800 
L 2950 1800 
Q 3575 1275 3825 1125 
Q 3625 925 3475 725 
Q 3100 1100 2650 1475 
Q 2775 1675 2875 1800 
L 1975 1800 
z
M 2975 3250 
Q 3125 3150 3287 3012 
Q 3450 2875 3800 2550 
Q 3650 2350 3525 2200 
L 4700 2200 
L 4750 3250 
L 2975 3250 
z
M 2075 3250 
L 2000 2200 
L 3425 2200 
Q 3150 2500 3012 2625 
Q 2875 2750 2700 2900 
Q 2800 3050 2925 3250 
L 2075 3250 
z
" transform="scale(0.015625)"/>
      <path id="SimHei-80a1" d="M 1575 50 
Q 1925 25 2100 50 
Q 2275 75 2275 450 
L 2275 1625 
L 1325 1625 
Q 1250 900 1125 437 
Q 1000 -25 750 -525 
Q 550 -325 225 -250 
Q 550 150 687 762 
Q 825 1375 837 2150 
Q 850 2925 850 3725 
Q 850 4525 825 4900 
L 2750 4900 
Q 2725 4400 2725 3900 
L 2725 225 
Q 2725 -250 2512 -350 
Q 2300 -450 1750 -550 
Q 1700 -225 1575 50 
z
M 5225 -275 
Q 4950 -150 4450 275 
Q 4200 25 3875 -212 
Q 3550 -450 3100 -700 
Q 2925 -375 2725 -225 
Q 3250 -50 3550 137 
Q 3850 325 4100 600 
Q 3825 950 3625 1375 
Q 3425 1750 3325 2150 
Q 3225 2150 3125 2150 
L 3125 2600 
Q 3550 2575 3950 2575 
L 5725 2575 
Q 5650 2200 5375 1600 
Q 5100 1000 4775 600 
Q 5025 425 5387 237 
Q 5750 50 6200 -50 
Q 5950 -250 5850 -600 
L 5225 -275 
z
M 5325 3750 
Q 5300 3425 5600 3425 
L 6150 3450 
Q 6050 3225 6025 3000 
L 5400 3000 
Q 4825 3000 4825 3450 
L 4825 4500 
L 4000 4500 
Q 4000 3900 3862 3512 
Q 3725 3125 3275 2750 
Q 3150 2950 2900 3125 
Q 3425 3450 3475 3950 
Q 3525 4450 3500 4900 
L 5350 4900 
Q 5325 4675 5325 4375 
L 5325 3750 
z
M 2275 2050 
L 2275 3075 
L 1350 3075 
L 1350 2050 
L 2275 2050 
z
M 2275 3475 
L 2275 4500 
L 1350 4500 
L 1350 3475 
L 2275 3475 
z
M 3800 2175 
Q 3900 1750 4050 1475 
Q 4225 1175 4450 925 
Q 4925 1550 5050 2175 
L 3950 2175 
L 3800 2175 
z
" transform="scale(0.015625)"/>
      <path id="SimHei-6536" d="M 4250 5050 
Q 4125 4850 3750 4050 
L 5150 4050 
Q 5675 4050 6125 4075 
L 6125 3600 
Q 5675 3625 5300 3625 
Q 5225 2625 5025 1975 
Q 4825 1325 4575 900 
Q 4900 500 5287 275 
Q 5675 50 6200 -75 
Q 5900 -275 5800 -550 
Q 5300 -350 4950 -100 
Q 4600 150 4275 525 
Q 3800 0 2775 -625 
Q 2650 -425 2300 -225 
Q 3275 150 3950 925 
Q 3775 1325 3612 1787 
Q 3450 2250 3250 3000 
Q 2975 2450 2825 2275 
Q 2650 2400 2425 2525 
Q 2775 3025 3137 3837 
Q 3500 4650 3625 5250 
Q 3925 5125 4250 5050 
z
M 975 4275 
Q 925 3950 925 3450 
L 925 1575 
L 1775 1725 
L 1775 4425 
Q 1775 4775 1750 5150 
L 2250 5150 
Q 2225 4850 2225 4450 
L 2225 300 
Q 2225 -50 2250 -550 
L 1750 -550 
Q 1775 -25 1775 350 
L 1775 1350 
Q 625 1050 500 925 
Q 375 1125 225 1350 
Q 450 1475 450 1800 
L 450 3575 
Q 450 3925 425 4275 
L 975 4275 
z
M 3725 3150 
Q 3800 2700 3962 2212 
Q 4125 1725 4300 1375 
Q 4725 2150 4825 3625 
L 3575 3625 
Q 3400 3275 3300 3100 
L 3725 3150 
z
" transform="scale(0.015625)"/>
      <path id="SimHei-76ca" d="M 2825 2925 
Q 2425 2775 2012 2487 
Q 1600 2200 1225 1975 
L 5275 1975 
Q 5250 1575 5250 1000 
L 5250 -50 
Q 5800 -50 6175 -25 
L 6175 -525 
Q 5725 -500 5250 -500 
L 1325 -500 
Q 700 -500 250 -525 
L 250 -25 
Q 600 -50 1175 -50 
L 1175 1050 
Q 1175 1575 1150 1925 
Q 1000 1800 800 1700 
Q 650 1950 425 2125 
Q 800 2275 1312 2600 
Q 1825 2925 2325 3400 
Q 2550 3150 2825 2925 
z
M 4725 5050 
Q 4575 4900 4462 4637 
Q 4350 4375 4175 4075 
L 4625 4075 
Q 5350 4075 5900 4100 
L 5900 3625 
Q 5350 3650 4625 3650 
L 1975 3650 
Q 1350 3650 550 3625 
L 550 4100 
Q 1175 4075 1975 4075 
L 3675 4075 
Q 3775 4300 3887 4625 
Q 4000 4950 4125 5250 
L 4725 5050 
z
M 3600 -50 
L 3600 1575 
L 2800 1575 
L 2800 -50 
L 3600 -50 
z
M 4800 -50 
L 4800 1575 
L 4025 1575 
L 4025 -50 
L 4800 -50 
z
M 2375 -50 
L 2375 1575 
L 1625 1575 
L 1625 -50 
L 2375 -50 
z
M 3900 3350 
Q 4375 3150 4900 2925 
Q 5425 2700 5900 2500 
Q 5700 2300 5550 2000 
Q 5025 2300 4512 2537 
Q 4000 2775 3625 2900 
Q 3750 3075 3900 3350 
z
M 2150 5250 
Q 2375 4925 2650 4350 
Q 2425 4275 2150 4125 
Q 1950 4650 1675 5025 
Q 1875 5100 2150 5250 
z
" transform="scale(0.015625)"/>
      <path id="SimHei-57fa" d="M 1800 4550 
Q 1800 4900 1775 5200 
L 2300 5200 
Q 2275 4875 2275 4550 
L 4075 4550 
Q 4075 4900 4050 5200 
L 4575 5200 
Q 4550 4875 4550 4550 
L 4925 4550 
Q 5200 4550 5625 4575 
L 5625 4175 
Q 5200 4200 4925 4200 
L 4550 4200 
L 4550 2225 
L 5100 2225 
Q 5600 2225 6025 2250 
L 6025 1800 
Q 5625 1850 5125 1850 
L 4500 1850 
Q 4875 1450 5225 1237 
Q 5575 1025 6125 900 
Q 5900 625 5850 350 
Q 5200 650 4737 1037 
Q 4275 1425 4000 1850 
L 2500 1850 
Q 2200 1375 1712 1000 
Q 1225 625 550 350 
Q 475 575 275 825 
Q 700 925 1212 1212 
Q 1725 1500 1950 1850 
L 1300 1850 
Q 850 1850 400 1800 
L 400 2250 
Q 850 2225 1300 2225 
L 1800 2225 
L 1800 4200 
Q 1200 4200 775 4175 
L 775 4575 
Q 1200 4550 1625 4550 
L 1800 4550 
z
M 2950 950 
Q 2950 1200 2925 1575 
L 3475 1575 
Q 3425 1300 3425 950 
L 3900 950 
Q 4250 950 4575 975 
L 4575 500 
Q 4250 550 3875 550 
L 3425 550 
L 3425 -100 
L 4500 -100 
Q 5075 -100 5550 -75 
L 5550 -525 
Q 5075 -500 4500 -500 
L 1800 -500 
Q 1300 -500 850 -525 
L 850 -75 
Q 1275 -100 1800 -100 
L 2950 -100 
L 2950 550 
L 2550 550 
Q 2125 550 1775 525 
L 1775 975 
Q 2125 950 2500 950 
L 2950 950 
z
M 4075 2225 
L 4075 2650 
L 2275 2650 
L 2275 2225 
L 4075 2225 
z
M 4075 3775 
L 4075 4200 
L 2275 4200 
L 2275 3775 
L 4075 3775 
z
M 4075 3025 
L 4075 3375 
L 2275 3375 
L 2275 3025 
L 4075 3025 
z
" transform="scale(0.015625)"/>
      <path id="SimHei-672c" d="M 2950 3925 
L 2950 4425 
Q 2950 4825 2925 5175 
L 3475 5175 
Q 3450 4900 3450 4450 
L 3450 3925 
L 4850 3925 
Q 5275 3925 5850 3950 
L 5850 3475 
Q 5300 3500 4875 3500 
L 3850 3500 
Q 4200 2350 4862 1687 
Q 5525 1025 6075 800 
Q 5850 625 5650 325 
Q 4800 900 4262 1637 
Q 3725 2375 3450 3350 
L 3450 1000 
L 3775 1000 
Q 4175 1000 4600 1025 
L 4600 550 
Q 4175 575 3750 575 
L 3450 575 
Q 3450 0 3475 -600 
L 2925 -600 
Q 2950 0 2950 575 
L 2625 575 
Q 2225 575 1825 550 
L 1825 1025 
Q 2225 1000 2625 1000 
L 2950 1000 
L 2950 3300 
Q 2550 2275 2062 1575 
Q 1575 875 750 175 
Q 550 450 275 575 
Q 1100 1075 1650 1825 
Q 2200 2575 2525 3500 
L 1425 3500 
Q 1025 3500 575 3475 
L 575 3950 
Q 1025 3925 1400 3925 
L 2950 3925 
z
" transform="scale(0.015625)"/>
      <path id="SimHei-28" d="M 2975 -200 
L 2700 -475 
Q 2075 125 1762 775 
Q 1450 1425 1450 2250 
Q 1450 3075 1762 3725 
Q 2075 4375 2700 5000 
L 2975 4725 
Q 2400 4175 2112 3587 
Q 1825 3000 1825 2250 
Q 1825 1500 2112 912 
Q 2400 325 2975 -200 
z
" transform="scale(0.015625)"/>
      <path id="SimHei-25" d="M 1400 3325 
Q 1400 2600 1187 2400 
Q 975 2200 775 2200 
Q 575 2200 362 2400 
Q 150 2600 150 3325 
Q 150 4050 362 4250 
Q 575 4450 775 4450 
Q 975 4450 1187 4250 
Q 1400 4050 1400 3325 
z
M 2625 4375 
L 700 75 
L 500 150 
L 2425 4450 
L 2625 4375 
z
M 2975 1200 
Q 2975 475 2762 275 
Q 2550 75 2350 75 
Q 2150 75 1937 275 
Q 1725 475 1725 1200 
Q 1725 1925 1937 2125 
Q 2150 2325 2350 2325 
Q 2550 2325 2762 2125 
Q 2975 1925 2975 1200 
z
M 1000 3325 
Q 1000 3775 950 3925 
Q 900 4075 775 4075 
Q 650 4075 600 3925 
Q 550 3775 550 3325 
Q 550 2875 600 2725 
Q 650 2575 775 2575 
Q 900 2575 950 2725 
Q 1000 2875 1000 3325 
z
M 2575 1200 
Q 2575 1650 2525 1800 
Q 2475 1950 2350 1950 
Q 2225 1950 2175 1800 
Q 2125 1650 2125 1200 
Q 2125 750 2175 600 
Q 2225 450 2350 450 
Q 2475 450 2525 600 
Q 2575 750 2575 1200 
z
" transform="scale(0.015625)"/>
      <path id="SimHei-29" d="M 1675 2250 
Q 1675 1425 1362 775 
Q 1050 125 425 -475 
L 150 -200 
Q 725 325 1012 912 
Q 1300 1500 1300 2250 
Q 1300 3000 1012 3587 
Q 725 4175 150 4725 
L 425 5000 
Q 1050 4375 1362 3725 
Q 1675 3075 1675 2250 
z
" transform="scale(0.015625)"/>
     </defs>
     <use xlink:href="#SimHei-6bcf"/>
     <use xlink:href="#SimHei-80a1" x="100"/>
     <use xlink:href="#SimHei-6536" x="200"/>
     <use xlink:href="#SimHei-76ca" x="300"/>
     <use xlink:href="#SimHei-2d" x="400"/>
     <use xlink:href="#SimHei-57fa" x="450"/>
     <use xlink:href="#SimHei-672c" x="550"/>
     <use xlink:href="#SimHei-28" x="650"/>
     <use xlink:href="#SimHei-25" x="700"/>
     <use xlink:href="#SimHei-29" x="750"/>
    </g>
   </g>
  </g>
  <g id="axes_2">
   <g id="patch_7">
    <path d="M 2869.411765 1260 
L 4510.588235 1260 
L 4510.588235 172.8 
L 2869.411765 172.8 
z
" style="fill: #ffffff"/>
   </g>
   <g id="PathCollection_2">
    <defs>
     <path id="m1529bd3f15" d="M 0 8.660254 
C 2.296726 8.660254 4.499694 7.747755 6.123724 6.123724 
C 7.747755 4.499694 8.660254 2.296726 8.660254 0 
C 8.660254 -2.296726 7.747755 -4.499694 6.123724 -6.123724 
C 4.499694 -7.747755 2.296726 -8.660254 0 -8.660254 
C -2.296726 -8.660254 -4.499694 -7.747755 -6.123724 -6.123724 
C -7.747755 -4.499694 -8.660254 -2.296726 -8.660254 0 
C -8.660254 2.296726 -7.747755 4.499694 -6.123724 6.123724 
C -4.499694 7.747755 -2.296726 8.660254 0 8.660254 
z
" style="stroke: #0000ff"/>
    </defs>
    <g clip-path="url(#pbcbed941b7)">
     <use xlink:href="#m1529bd3f15" x="2869.411765" y="456.886539" style="fill: #0000ff; stroke: #0000ff"/>
     <use xlink:href="#m1529bd3f15" x="2951.470588" y="1034.489875" style="fill: #0000ff; stroke: #0000ff"/>
     <use xlink:href="#m1529bd3f15" x="3033.529412" y="721.115129" style="fill: #0000ff; stroke: #0000ff"/>
     <use xlink:href="#m1529bd3f15" x="3115.588235" y="817.775279" style="fill: #0000ff; stroke: #0000ff"/>
     <use xlink:href="#m1529bd3f15" x="3197.647059" y="722.747289" style="fill: #0000ff; stroke: #0000ff"/>
     <use xlink:href="#m1529bd3f15" x="3279.705882" y="828.656347" style="fill: #0000ff; stroke: #0000ff"/>
     <use xlink:href="#m1529bd3f15" x="3361.764706" y="414.269024" style="fill: #0000ff; stroke: #0000ff"/>
     <use xlink:href="#m1529bd3f15" x="3443.823529" y="1025.785021" style="fill: #0000ff; stroke: #0000ff"/>
     <use xlink:href="#m1529bd3f15" x="3525.882353" y="963.218882" style="fill: #0000ff; stroke: #0000ff"/>
     <use xlink:href="#m1529bd3f15" x="3607.941176" y="909.357598" style="fill: #0000ff; stroke: #0000ff"/>
     <use xlink:href="#m1529bd3f15" x="3690" y="222.218182" style="fill: #0000ff; stroke: #0000ff"/>
     <use xlink:href="#m1529bd3f15" x="3772.058824" y="483.907857" style="fill: #0000ff; stroke: #0000ff"/>
     <use xlink:href="#m1529bd3f15" x="3854.117647" y="961.042669" style="fill: #0000ff; stroke: #0000ff"/>
     <use xlink:href="#m1529bd3f15" x="3936.176471" y="1210.581818" style="fill: #0000ff; stroke: #0000ff"/>
     <use xlink:href="#m1529bd3f15" x="4018.235294" y="1208.224254" style="fill: #0000ff; stroke: #0000ff"/>
     <use xlink:href="#m1529bd3f15" x="4100.294118" y="913.710025" style="fill: #0000ff; stroke: #0000ff"/>
     <use xlink:href="#m1529bd3f15" x="4182.352941" y="333.205071" style="fill: #0000ff; stroke: #0000ff"/>
     <use xlink:href="#m1529bd3f15" x="4264.411765" y="798.189358" style="fill: #0000ff; stroke: #0000ff"/>
     <use xlink:href="#m1529bd3f15" x="4346.470588" y="1003.660183" style="fill: #0000ff; stroke: #0000ff"/>
     <use xlink:href="#m1529bd3f15" x="4428.529412" y="1090.890075" style="fill: #0000ff; stroke: #0000ff"/>
     <use xlink:href="#m1529bd3f15" x="4510.588235" y="1065.138215" style="fill: #0000ff; stroke: #0000ff"/>
    </g>
   </g>
   <g id="matplotlib.axis_3">
    <g id="xtick_22">
     <g id="line2d_28">
      <g>
       <use xlink:href="#m17f51bda77" x="2869.411765" y="1260" style="stroke: #000000; stroke-width: 0.8"/>
      </g>
     </g>
     <g id="text_29">
      <!-- 2001 -->
      <g transform="translate(2833.141745 1346.769623)rotate(-30)scale(0.5 -0.5)">
       <use xlink:href="#SimHei-32"/>
       <use xlink:href="#SimHei-30" x="50"/>
       <use xlink:href="#SimHei-30" x="100"/>
       <use xlink:href="#SimHei-31" x="150"/>
      </g>
     </g>
    </g>
    <g id="xtick_23">
     <g id="line2d_29">
      <g>
       <use xlink:href="#m17f51bda77" x="2951.470588" y="1260" style="stroke: #000000; stroke-width: 0.8"/>
      </g>
     </g>
     <g id="text_30">
      <!-- 2002 -->
      <g transform="translate(2915.200568 1346.769623)rotate(-30)scale(0.5 -0.5)">
       <use xlink:href="#SimHei-32"/>
       <use xlink:href="#SimHei-30" x="50"/>
       <use xlink:href="#SimHei-30" x="100"/>
       <use xlink:href="#SimHei-32" x="150"/>
      </g>
     </g>
    </g>
    <g id="xtick_24">
     <g id="line2d_30">
      <g>
       <use xlink:href="#m17f51bda77" x="3033.529412" y="1260" style="stroke: #000000; stroke-width: 0.8"/>
      </g>
     </g>
     <g id="text_31">
      <!-- 2003 -->
      <g transform="translate(2997.259392 1346.769623)rotate(-30)scale(0.5 -0.5)">
       <use xlink:href="#SimHei-32"/>
       <use xlink:href="#SimHei-30" x="50"/>
       <use xlink:href="#SimHei-30" x="100"/>
       <use xlink:href="#SimHei-33" x="150"/>
      </g>
     </g>
    </g>
    <g id="xtick_25">
     <g id="line2d_31">
      <g>
       <use xlink:href="#m17f51bda77" x="3115.588235" y="1260" style="stroke: #000000; stroke-width: 0.8"/>
      </g>
     </g>
     <g id="text_32">
      <!-- 2004 -->
      <g transform="translate(3079.318215 1346.769623)rotate(-30)scale(0.5 -0.5)">
       <use xlink:href="#SimHei-32"/>
       <use xlink:href="#SimHei-30" x="50"/>
       <use xlink:href="#SimHei-30" x="100"/>
       <use xlink:href="#SimHei-34" x="150"/>
      </g>
     </g>
    </g>
    <g id="xtick_26">
     <g id="line2d_32">
      <g>
       <use xlink:href="#m17f51bda77" x="3197.647059" y="1260" style="stroke: #000000; stroke-width: 0.8"/>
      </g>
     </g>
     <g id="text_33">
      <!-- 2005 -->
      <g transform="translate(3161.377039 1346.769623)rotate(-30)scale(0.5 -0.5)">
       <use xlink:href="#SimHei-32"/>
       <use xlink:href="#SimHei-30" x="50"/>
       <use xlink:href="#SimHei-30" x="100"/>
       <use xlink:href="#SimHei-35" x="150"/>
      </g>
     </g>
    </g>
    <g id="xtick_27">
     <g id="line2d_33">
      <g>
       <use xlink:href="#m17f51bda77" x="3279.705882" y="1260" style="stroke: #000000; stroke-width: 0.8"/>
      </g>
     </g>
     <g id="text_34">
      <!-- 2006 -->
      <g transform="translate(3243.435862 1346.769623)rotate(-30)scale(0.5 -0.5)">
       <use xlink:href="#SimHei-32"/>
       <use xlink:href="#SimHei-30" x="50"/>
       <use xlink:href="#SimHei-30" x="100"/>
       <use xlink:href="#SimHei-36" x="150"/>
      </g>
     </g>
    </g>
    <g id="xtick_28">
     <g id="line2d_34">
      <g>
       <use xlink:href="#m17f51bda77" x="3361.764706" y="1260" style="stroke: #000000; stroke-width: 0.8"/>
      </g>
     </g>
     <g id="text_35">
      <!-- 2007 -->
      <g transform="translate(3325.494686 1346.769623)rotate(-30)scale(0.5 -0.5)">
       <use xlink:href="#SimHei-32"/>
       <use xlink:href="#SimHei-30" x="50"/>
       <use xlink:href="#SimHei-30" x="100"/>
       <use xlink:href="#SimHei-37" x="150"/>
      </g>
     </g>
    </g>
    <g id="xtick_29">
     <g id="line2d_35">
      <g>
       <use xlink:href="#m17f51bda77" x="3443.823529" y="1260" style="stroke: #000000; stroke-width: 0.8"/>
      </g>
     </g>
     <g id="text_36">
      <!-- 2008 -->
      <g transform="translate(3407.553509 1346.769623)rotate(-30)scale(0.5 -0.5)">
       <use xlink:href="#SimHei-32"/>
       <use xlink:href="#SimHei-30" x="50"/>
       <use xlink:href="#SimHei-30" x="100"/>
       <use xlink:href="#SimHei-38" x="150"/>
      </g>
     </g>
    </g>
    <g id="xtick_30">
     <g id="line2d_36">
      <g>
       <use xlink:href="#m17f51bda77" x="3525.882353" y="1260" style="stroke: #000000; stroke-width: 0.8"/>
      </g>
     </g>
     <g id="text_37">
      <!-- 2009 -->
      <g transform="translate(3489.612333 1346.769623)rotate(-30)scale(0.5 -0.5)">
       <use xlink:href="#SimHei-32"/>
       <use xlink:href="#SimHei-30" x="50"/>
       <use xlink:href="#SimHei-30" x="100"/>
       <use xlink:href="#SimHei-39" x="150"/>
      </g>
     </g>
    </g>
    <g id="xtick_31">
     <g id="line2d_37">
      <g>
       <use xlink:href="#m17f51bda77" x="3607.941176" y="1260" style="stroke: #000000; stroke-width: 0.8"/>
      </g>
     </g>
     <g id="text_38">
      <!-- 2010 -->
      <g transform="translate(3571.671156 1346.769623)rotate(-30)scale(0.5 -0.5)">
       <use xlink:href="#SimHei-32"/>
       <use xlink:href="#SimHei-30" x="50"/>
       <use xlink:href="#SimHei-31" x="100"/>
       <use xlink:href="#SimHei-30" x="150"/>
      </g>
     </g>
    </g>
    <g id="xtick_32">
     <g id="line2d_38">
      <g>
       <use xlink:href="#m17f51bda77" x="3690" y="1260" style="stroke: #000000; stroke-width: 0.8"/>
      </g>
     </g>
     <g id="text_39">
      <!-- 2011 -->
      <g transform="translate(3653.72998 1346.769623)rotate(-30)scale(0.5 -0.5)">
       <use xlink:href="#SimHei-32"/>
       <use xlink:href="#SimHei-30" x="50"/>
       <use xlink:href="#SimHei-31" x="100"/>
       <use xlink:href="#SimHei-31" x="150"/>
      </g>
     </g>
    </g>
    <g id="xtick_33">
     <g id="line2d_39">
      <g>
       <use xlink:href="#m17f51bda77" x="3772.058824" y="1260" style="stroke: #000000; stroke-width: 0.8"/>
      </g>
     </g>
     <g id="text_40">
      <!-- 2012 -->
      <g transform="translate(3735.788803 1346.769623)rotate(-30)scale(0.5 -0.5)">
       <use xlink:href="#SimHei-32"/>
       <use xlink:href="#SimHei-30" x="50"/>
       <use xlink:href="#SimHei-31" x="100"/>
       <use xlink:href="#SimHei-32" x="150"/>
      </g>
     </g>
    </g>
    <g id="xtick_34">
     <g id="line2d_40">
      <g>
       <use xlink:href="#m17f51bda77" x="3854.117647" y="1260" style="stroke: #000000; stroke-width: 0.8"/>
      </g>
     </g>
     <g id="text_41">
      <!-- 2013 -->
      <g transform="translate(3817.847627 1346.769623)rotate(-30)scale(0.5 -0.5)">
       <use xlink:href="#SimHei-32"/>
       <use xlink:href="#SimHei-30" x="50"/>
       <use xlink:href="#SimHei-31" x="100"/>
       <use xlink:href="#SimHei-33" x="150"/>
      </g>
     </g>
    </g>
    <g id="xtick_35">
     <g id="line2d_41">
      <g>
       <use xlink:href="#m17f51bda77" x="3936.176471" y="1260" style="stroke: #000000; stroke-width: 0.8"/>
      </g>
     </g>
     <g id="text_42">
      <!-- 2014 -->
      <g transform="translate(3899.90645 1346.769623)rotate(-30)scale(0.5 -0.5)">
       <use xlink:href="#SimHei-32"/>
       <use xlink:href="#SimHei-30" x="50"/>
       <use xlink:href="#SimHei-31" x="100"/>
       <use xlink:href="#SimHei-34" x="150"/>
      </g>
     </g>
    </g>
    <g id="xtick_36">
     <g id="line2d_42">
      <g>
       <use xlink:href="#m17f51bda77" x="4018.235294" y="1260" style="stroke: #000000; stroke-width: 0.8"/>
      </g>
     </g>
     <g id="text_43">
      <!-- 2015 -->
      <g transform="translate(3981.965274 1346.769623)rotate(-30)scale(0.5 -0.5)">
       <use xlink:href="#SimHei-32"/>
       <use xlink:href="#SimHei-30" x="50"/>
       <use xlink:href="#SimHei-31" x="100"/>
       <use xlink:href="#SimHei-35" x="150"/>
      </g>
     </g>
    </g>
    <g id="xtick_37">
     <g id="line2d_43">
      <g>
       <use xlink:href="#m17f51bda77" x="4100.294118" y="1260" style="stroke: #000000; stroke-width: 0.8"/>
      </g>
     </g>
     <g id="text_44">
      <!-- 2016 -->
      <g transform="translate(4064.024097 1346.769623)rotate(-30)scale(0.5 -0.5)">
       <use xlink:href="#SimHei-32"/>
       <use xlink:href="#SimHei-30" x="50"/>
       <use xlink:href="#SimHei-31" x="100"/>
       <use xlink:href="#SimHei-36" x="150"/>
      </g>
     </g>
    </g>
    <g id="xtick_38">
     <g id="line2d_44">
      <g>
       <use xlink:href="#m17f51bda77" x="4182.352941" y="1260" style="stroke: #000000; stroke-width: 0.8"/>
      </g>
     </g>
     <g id="text_45">
      <!-- 2017 -->
      <g transform="translate(4146.082921 1346.769623)rotate(-30)scale(0.5 -0.5)">
       <use xlink:href="#SimHei-32"/>
       <use xlink:href="#SimHei-30" x="50"/>
       <use xlink:href="#SimHei-31" x="100"/>
       <use xlink:href="#SimHei-37" x="150"/>
      </g>
     </g>
    </g>
    <g id="xtick_39">
     <g id="line2d_45">
      <g>
       <use xlink:href="#m17f51bda77" x="4264.411765" y="1260" style="stroke: #000000; stroke-width: 0.8"/>
      </g>
     </g>
     <g id="text_46">
      <!-- 2018 -->
      <g transform="translate(4228.141745 1346.769623)rotate(-30)scale(0.5 -0.5)">
       <use xlink:href="#SimHei-32"/>
       <use xlink:href="#SimHei-30" x="50"/>
       <use xlink:href="#SimHei-31" x="100"/>
       <use xlink:href="#SimHei-38" x="150"/>
      </g>
     </g>
    </g>
    <g id="xtick_40">
     <g id="line2d_46">
      <g>
       <use xlink:href="#m17f51bda77" x="4346.470588" y="1260" style="stroke: #000000; stroke-width: 0.8"/>
      </g>
     </g>
     <g id="text_47">
      <!-- 2019 -->
      <g transform="translate(4310.200568 1346.769623)rotate(-30)scale(0.5 -0.5)">
       <use xlink:href="#SimHei-32"/>
       <use xlink:href="#SimHei-30" x="50"/>
       <use xlink:href="#SimHei-31" x="100"/>
       <use xlink:href="#SimHei-39" x="150"/>
      </g>
     </g>
    </g>
    <g id="xtick_41">
     <g id="line2d_47">
      <g>
       <use xlink:href="#m17f51bda77" x="4428.529412" y="1260" style="stroke: #000000; stroke-width: 0.8"/>
      </g>
     </g>
     <g id="text_48">
      <!-- 2020 -->
      <g transform="translate(4392.259392 1346.769623)rotate(-30)scale(0.5 -0.5)">
       <use xlink:href="#SimHei-32"/>
       <use xlink:href="#SimHei-30" x="50"/>
       <use xlink:href="#SimHei-32" x="100"/>
       <use xlink:href="#SimHei-30" x="150"/>
      </g>
     </g>
    </g>
    <g id="xtick_42">
     <g id="line2d_48">
      <g>
       <use xlink:href="#m17f51bda77" x="4510.588235" y="1260" style="stroke: #000000; stroke-width: 0.8"/>
      </g>
     </g>
     <g id="text_49">
      <!-- 2021 -->
      <g transform="translate(4474.318215 1346.769623)rotate(-30)scale(0.5 -0.5)">
       <use xlink:href="#SimHei-32"/>
       <use xlink:href="#SimHei-30" x="50"/>
       <use xlink:href="#SimHei-32" x="100"/>
       <use xlink:href="#SimHei-31" x="150"/>
      </g>
     </g>
    </g>
   </g>
   <g id="matplotlib.axis_4">
    <g id="ytick_7">
     <g id="line2d_49">
      <g>
       <use xlink:href="#m0f4f0f8870" x="2869.411765" y="1096.149258" style="stroke: #000000; stroke-width: 0.8"/>
      </g>
     </g>
     <g id="text_50">
      <!-- 10 -->
      <g transform="translate(2822.411765 1109.899258)scale(0.4 -0.4)">
       <use xlink:href="#SimHei-31"/>
       <use xlink:href="#SimHei-30" x="50"/>
      </g>
     </g>
    </g>
    <g id="ytick_8">
     <g id="line2d_50">
      <g>
       <use xlink:href="#m0f4f0f8870" x="2869.411765" y="914.798132" style="stroke: #000000; stroke-width: 0.8"/>
      </g>
     </g>
     <g id="text_51">
      <!-- 20 -->
      <g transform="translate(2822.411765 928.548132)scale(0.4 -0.4)">
       <use xlink:href="#SimHei-32"/>
       <use xlink:href="#SimHei-30" x="50"/>
      </g>
     </g>
    </g>
    <g id="ytick_9">
     <g id="line2d_51">
      <g>
       <use xlink:href="#m0f4f0f8870" x="2869.411765" y="733.447006" style="stroke: #000000; stroke-width: 0.8"/>
      </g>
     </g>
     <g id="text_52">
      <!-- 30 -->
      <g transform="translate(2822.411765 747.197006)scale(0.4 -0.4)">
       <use xlink:href="#SimHei-33"/>
       <use xlink:href="#SimHei-30" x="50"/>
      </g>
     </g>
    </g>
    <g id="ytick_10">
     <g id="line2d_52">
      <g>
       <use xlink:href="#m0f4f0f8870" x="2869.411765" y="552.09588" style="stroke: #000000; stroke-width: 0.8"/>
      </g>
     </g>
     <g id="text_53">
      <!-- 40 -->
      <g transform="translate(2822.411765 565.84588)scale(0.4 -0.4)">
       <use xlink:href="#SimHei-34"/>
       <use xlink:href="#SimHei-30" x="50"/>
      </g>
     </g>
    </g>
    <g id="ytick_11">
     <g id="line2d_53">
      <g>
       <use xlink:href="#m0f4f0f8870" x="2869.411765" y="370.744754" style="stroke: #000000; stroke-width: 0.8"/>
      </g>
     </g>
     <g id="text_54">
      <!-- 50 -->
      <g transform="translate(2822.411765 384.494754)scale(0.4 -0.4)">
       <use xlink:href="#SimHei-35"/>
       <use xlink:href="#SimHei-30" x="50"/>
      </g>
     </g>
    </g>
    <g id="ytick_12">
     <g id="line2d_54">
      <g>
       <use xlink:href="#m0f4f0f8870" x="2869.411765" y="189.393628" style="stroke: #000000; stroke-width: 0.8"/>
      </g>
     </g>
     <g id="text_55">
      <!-- 60 -->
      <g transform="translate(2822.411765 203.143628)scale(0.4 -0.4)">
       <use xlink:href="#SimHei-36"/>
       <use xlink:href="#SimHei-30" x="50"/>
      </g>
     </g>
    </g>
   </g>
   <g id="patch_8">
    <path d="M 2869.411765 1260 
L 2869.411765 172.8 
" style="fill: none; stroke: #000000; stroke-width: 0.8; stroke-linejoin: miter; stroke-linecap: square"/>
   </g>
   <g id="patch_9">
    <path d="M 4510.588235 1260 
L 4510.588235 172.8 
" style="fill: none; stroke: #000000; stroke-width: 0.8; stroke-linejoin: miter; stroke-linecap: square"/>
   </g>
   <g id="patch_10">
    <path d="M 2869.411765 1260 
L 4510.588235 1260 
" style="fill: none; stroke: #000000; stroke-width: 0.8; stroke-linejoin: miter; stroke-linecap: square"/>
   </g>
   <g id="patch_11">
    <path d="M 2869.411765 172.8 
L 4510.588235 172.8 
" style="fill: none; stroke: #000000; stroke-width: 0.8; stroke-linejoin: miter; stroke-linecap: square"/>
   </g>
   <g id="text_56">
    <!-- 营业总收入(%) -->
    <g transform="translate(3527.5 166.55)scale(0.5 -0.5)">
     <defs>
      <path id="SimHei-8425" d="M 5375 1050 
Q 5325 650 5325 275 
Q 5325 -100 5375 -550 
L 4825 -550 
L 4825 -275 
L 1650 -275 
L 1650 -625 
L 1150 -625 
Q 1175 -250 1175 200 
Q 1175 675 1150 1050 
L 5375 1050 
z
M 4850 2700 
Q 4825 2400 4825 2050 
Q 4825 1725 4850 1400 
L 1575 1400 
Q 1600 1725 1600 2050 
Q 1600 2400 1575 2700 
L 4850 2700 
z
M 2550 5100 
Q 2525 4800 2525 4550 
L 3900 4550 
Q 3900 4775 3875 5125 
L 4425 5125 
Q 4400 4825 4400 4550 
L 5075 4550 
Q 5550 4550 6025 4575 
L 6025 4150 
Q 5625 4175 5075 4175 
L 4400 4175 
Q 4400 4025 4425 3675 
L 3900 3675 
L 3900 4175 
L 2525 4175 
L 2525 3675 
L 2000 3675 
Q 2025 4000 2025 4175 
L 1425 4175 
Q 925 4175 375 4150 
L 375 4575 
Q 925 4550 1425 4550 
L 2025 4550 
Q 2025 4775 2000 5100 
L 2550 5100 
z
M 5450 2400 
L 5450 3075 
L 975 3075 
L 975 2300 
L 475 2300 
Q 500 2525 500 2800 
Q 500 3100 475 3450 
L 5950 3450 
Q 5925 3200 5925 2925 
Q 5925 2675 5950 2400 
L 5450 2400 
z
M 4825 100 
L 4825 675 
L 1650 675 
L 1650 100 
L 4825 100 
z
M 4375 1775 
L 4375 2325 
L 2025 2325 
L 2025 1775 
L 4375 1775 
z
" transform="scale(0.015625)"/>
      <path id="SimHei-4e1a" d="M 2825 5025 
Q 2775 4325 2775 3825 
L 2775 150 
L 3600 150 
L 3600 4125 
Q 3600 4525 3550 5025 
L 4175 5025 
Q 4125 4625 4125 4175 
L 4125 150 
L 5100 150 
Q 5500 150 6075 200 
L 6075 -350 
Q 5500 -300 5125 -300 
L 1325 -300 
Q 975 -300 325 -350 
L 325 200 
Q 975 150 1300 150 
L 2225 150 
L 2225 3850 
Q 2225 4375 2150 5025 
L 2825 5025 
z
M 1025 3775 
Q 1325 3000 1850 1500 
Q 1575 1450 1275 1300 
Q 825 2750 475 3550 
Q 725 3650 1025 3775 
z
M 5850 3625 
Q 5525 2775 4950 1250 
Q 4700 1400 4425 1475 
Q 4950 2450 5225 3825 
Q 5500 3725 5850 3625 
z
" transform="scale(0.015625)"/>
      <path id="SimHei-603b" d="M 4550 4850 
Q 4375 4650 4025 3900 
L 5100 3900 
Q 5075 3425 5075 2950 
Q 5075 2500 5100 2025 
L 1175 2025 
Q 1200 2550 1200 3000 
Q 1200 3475 1175 3900 
L 2175 3900 
Q 1900 4350 1525 4750 
Q 1700 4850 1875 5050 
Q 2350 4550 2575 4200 
Q 2400 4075 2250 3900 
L 3550 3900 
Q 3875 4700 3950 5100 
Q 4300 4925 4550 4850 
z
M 4600 2450 
L 4600 3525 
L 1650 3525 
L 1650 2450 
L 4600 2450 
z
M 2275 1450 
Q 2250 1050 2250 675 
Q 2250 300 2262 112 
Q 2275 -75 2675 -75 
L 4000 -75 
Q 4325 -75 4400 550 
Q 4650 400 4925 325 
Q 4775 -200 4562 -337 
Q 4350 -475 4000 -450 
L 2325 -450 
Q 1850 -450 1825 -175 
Q 1800 100 1800 525 
Q 1800 975 1775 1450 
L 2275 1450 
z
M 1350 1325 
Q 1050 300 825 -250 
Q 625 -150 375 -50 
Q 675 525 900 1500 
Q 1100 1425 1350 1325 
z
M 4950 1575 
Q 5700 825 6000 450 
Q 5825 275 5625 100 
Q 5375 450 4600 1275 
Q 4750 1375 4950 1575 
z
M 3350 575 
Q 2975 1175 2675 1500 
Q 2825 1650 3000 1800 
Q 3225 1575 3750 875 
Q 3525 775 3350 575 
z
" transform="scale(0.015625)"/>
      <path id="SimHei-5165" d="M 5650 -375 
Q 5050 25 4500 650 
Q 3950 1275 3275 3050 
Q 2575 975 675 -475 
Q 575 -225 225 50 
Q 1850 825 2975 3525 
Q 2900 3725 2525 4125 
Q 2150 4525 1750 4675 
Q 2025 4900 2175 5125 
Q 2800 4650 3175 4225 
Q 3550 3800 4125 2375 
Q 4700 950 6125 250 
Q 5775 0 5650 -375 
z
" transform="scale(0.015625)"/>
     </defs>
     <use xlink:href="#SimHei-8425"/>
     <use xlink:href="#SimHei-4e1a" x="100"/>
     <use xlink:href="#SimHei-603b" x="200"/>
     <use xlink:href="#SimHei-6536" x="300"/>
     <use xlink:href="#SimHei-5165" x="400"/>
     <use xlink:href="#SimHei-28" x="500"/>
     <use xlink:href="#SimHei-25" x="550"/>
     <use xlink:href="#SimHei-29" x="600"/>
    </g>
   </g>
  </g>
  <g id="axes_3">
   <g id="patch_12">
    <path d="M 4838.823529 1260 
L 6480 1260 
L 6480 172.8 
L 4838.823529 172.8 
z
" style="fill: #ffffff"/>
   </g>
   <g id="PathCollection_3">
    <defs>
     <path id="m60ebf002a5" d="M 0 8.660254 
C 2.296726 8.660254 4.499694 7.747755 6.123724 6.123724 
C 7.747755 4.499694 8.660254 2.296726 8.660254 0 
C 8.660254 -2.296726 7.747755 -4.499694 6.123724 -6.123724 
C 4.499694 -7.747755 2.296726 -8.660254 0 -8.660254 
C -2.296726 -8.660254 -4.499694 -7.747755 -6.123724 -6.123724 
C -7.747755 -4.499694 -8.660254 -2.296726 -8.660254 0 
C -8.660254 2.296726 -7.747755 4.499694 -6.123724 6.123724 
C -4.499694 7.747755 -2.296726 8.660254 0 8.660254 
z
" style="stroke: #000000"/>
    </defs>
    <g clip-path="url(#pd743b69bfc)">
     <use xlink:href="#m60ebf002a5" x="4838.823529" y="772.877922" style="stroke: #000000"/>
     <use xlink:href="#m60ebf002a5" x="4920.882353" y="1132.924675" style="stroke: #000000"/>
     <use xlink:href="#m60ebf002a5" x="5002.941176" y="600.036005" style="stroke: #000000"/>
     <use xlink:href="#m60ebf002a5" x="5085" y="577.883027" style="stroke: #000000"/>
     <use xlink:href="#m60ebf002a5" x="5167.058824" y="866.48034" style="stroke: #000000"/>
     <use xlink:href="#m60ebf002a5" x="5249.117647" y="857.351366" style="stroke: #000000"/>
     <use xlink:href="#m60ebf002a5" x="5331.176471" y="222.218182" style="stroke: #000000"/>
     <use xlink:href="#m60ebf002a5" x="5413.235294" y="984.913569" style="stroke: #000000"/>
     <use xlink:href="#m60ebf002a5" x="5495.294118" y="1060.136319" style="stroke: #000000"/>
     <use xlink:href="#m60ebf002a5" x="5577.352941" y="1000.737125" style="stroke: #000000"/>
     <use xlink:href="#m60ebf002a5" x="5659.411765" y="338.338737" style="stroke: #000000"/>
     <use xlink:href="#m60ebf002a5" x="5741.470588" y="589.081236" style="stroke: #000000"/>
     <use xlink:href="#m60ebf002a5" x="5823.529412" y="1039.443977" style="stroke: #000000"/>
     <use xlink:href="#m60ebf002a5" x="5905.588235" y="1191.715271" style="stroke: #000000"/>
     <use xlink:href="#m60ebf002a5" x="5987.647059" y="1210.581818" style="stroke: #000000"/>
     <use xlink:href="#m60ebf002a5" x="6069.705882" y="1109.067622" style="stroke: #000000"/>
     <use xlink:href="#m60ebf002a5" x="6151.764706" y="466.266099" style="stroke: #000000"/>
     <use xlink:href="#m60ebf002a5" x="6233.823529" y="837.511061" style="stroke: #000000"/>
     <use xlink:href="#m60ebf002a5" x="6315.882353" y="1026.785132" style="stroke: #000000"/>
     <use xlink:href="#m60ebf002a5" x="6397.941176" y="1063.787909" style="stroke: #000000"/>
     <use xlink:href="#m60ebf002a5" x="6480" y="1064.031348" style="stroke: #000000"/>
    </g>
   </g>
   <g id="matplotlib.axis_5">
    <g id="xtick_43">
     <g id="line2d_55">
      <g>
       <use xlink:href="#m17f51bda77" x="4838.823529" y="1260" style="stroke: #000000; stroke-width: 0.8"/>
      </g>
     </g>
     <g id="text_57">
      <!-- 2001 -->
      <g transform="translate(4802.553509 1346.769623)rotate(-30)scale(0.5 -0.5)">
       <use xlink:href="#SimHei-32"/>
       <use xlink:href="#SimHei-30" x="50"/>
       <use xlink:href="#SimHei-30" x="100"/>
       <use xlink:href="#SimHei-31" x="150"/>
      </g>
     </g>
    </g>
    <g id="xtick_44">
     <g id="line2d_56">
      <g>
       <use xlink:href="#m17f51bda77" x="4920.882353" y="1260" style="stroke: #000000; stroke-width: 0.8"/>
      </g>
     </g>
     <g id="text_58">
      <!-- 2002 -->
      <g transform="translate(4884.612333 1346.769623)rotate(-30)scale(0.5 -0.5)">
       <use xlink:href="#SimHei-32"/>
       <use xlink:href="#SimHei-30" x="50"/>
       <use xlink:href="#SimHei-30" x="100"/>
       <use xlink:href="#SimHei-32" x="150"/>
      </g>
     </g>
    </g>
    <g id="xtick_45">
     <g id="line2d_57">
      <g>
       <use xlink:href="#m17f51bda77" x="5002.941176" y="1260" style="stroke: #000000; stroke-width: 0.8"/>
      </g>
     </g>
     <g id="text_59">
      <!-- 2003 -->
      <g transform="translate(4966.671156 1346.769623)rotate(-30)scale(0.5 -0.5)">
       <use xlink:href="#SimHei-32"/>
       <use xlink:href="#SimHei-30" x="50"/>
       <use xlink:href="#SimHei-30" x="100"/>
       <use xlink:href="#SimHei-33" x="150"/>
      </g>
     </g>
    </g>
    <g id="xtick_46">
     <g id="line2d_58">
      <g>
       <use xlink:href="#m17f51bda77" x="5085" y="1260" style="stroke: #000000; stroke-width: 0.8"/>
      </g>
     </g>
     <g id="text_60">
      <!-- 2004 -->
      <g transform="translate(5048.72998 1346.769623)rotate(-30)scale(0.5 -0.5)">
       <use xlink:href="#SimHei-32"/>
       <use xlink:href="#SimHei-30" x="50"/>
       <use xlink:href="#SimHei-30" x="100"/>
       <use xlink:href="#SimHei-34" x="150"/>
      </g>
     </g>
    </g>
    <g id="xtick_47">
     <g id="line2d_59">
      <g>
       <use xlink:href="#m17f51bda77" x="5167.058824" y="1260" style="stroke: #000000; stroke-width: 0.8"/>
      </g>
     </g>
     <g id="text_61">
      <!-- 2005 -->
      <g transform="translate(5130.788803 1346.769623)rotate(-30)scale(0.5 -0.5)">
       <use xlink:href="#SimHei-32"/>
       <use xlink:href="#SimHei-30" x="50"/>
       <use xlink:href="#SimHei-30" x="100"/>
       <use xlink:href="#SimHei-35" x="150"/>
      </g>
     </g>
    </g>
    <g id="xtick_48">
     <g id="line2d_60">
      <g>
       <use xlink:href="#m17f51bda77" x="5249.117647" y="1260" style="stroke: #000000; stroke-width: 0.8"/>
      </g>
     </g>
     <g id="text_62">
      <!-- 2006 -->
      <g transform="translate(5212.847627 1346.769623)rotate(-30)scale(0.5 -0.5)">
       <use xlink:href="#SimHei-32"/>
       <use xlink:href="#SimHei-30" x="50"/>
       <use xlink:href="#SimHei-30" x="100"/>
       <use xlink:href="#SimHei-36" x="150"/>
      </g>
     </g>
    </g>
    <g id="xtick_49">
     <g id="line2d_61">
      <g>
       <use xlink:href="#m17f51bda77" x="5331.176471" y="1260" style="stroke: #000000; stroke-width: 0.8"/>
      </g>
     </g>
     <g id="text_63">
      <!-- 2007 -->
      <g transform="translate(5294.90645 1346.769623)rotate(-30)scale(0.5 -0.5)">
       <use xlink:href="#SimHei-32"/>
       <use xlink:href="#SimHei-30" x="50"/>
       <use xlink:href="#SimHei-30" x="100"/>
       <use xlink:href="#SimHei-37" x="150"/>
      </g>
     </g>
    </g>
    <g id="xtick_50">
     <g id="line2d_62">
      <g>
       <use xlink:href="#m17f51bda77" x="5413.235294" y="1260" style="stroke: #000000; stroke-width: 0.8"/>
      </g>
     </g>
     <g id="text_64">
      <!-- 2008 -->
      <g transform="translate(5376.965274 1346.769623)rotate(-30)scale(0.5 -0.5)">
       <use xlink:href="#SimHei-32"/>
       <use xlink:href="#SimHei-30" x="50"/>
       <use xlink:href="#SimHei-30" x="100"/>
       <use xlink:href="#SimHei-38" x="150"/>
      </g>
     </g>
    </g>
    <g id="xtick_51">
     <g id="line2d_63">
      <g>
       <use xlink:href="#m17f51bda77" x="5495.294118" y="1260" style="stroke: #000000; stroke-width: 0.8"/>
      </g>
     </g>
     <g id="text_65">
      <!-- 2009 -->
      <g transform="translate(5459.024097 1346.769623)rotate(-30)scale(0.5 -0.5)">
       <use xlink:href="#SimHei-32"/>
       <use xlink:href="#SimHei-30" x="50"/>
       <use xlink:href="#SimHei-30" x="100"/>
       <use xlink:href="#SimHei-39" x="150"/>
      </g>
     </g>
    </g>
    <g id="xtick_52">
     <g id="line2d_64">
      <g>
       <use xlink:href="#m17f51bda77" x="5577.352941" y="1260" style="stroke: #000000; stroke-width: 0.8"/>
      </g>
     </g>
     <g id="text_66">
      <!-- 2010 -->
      <g transform="translate(5541.082921 1346.769623)rotate(-30)scale(0.5 -0.5)">
       <use xlink:href="#SimHei-32"/>
       <use xlink:href="#SimHei-30" x="50"/>
       <use xlink:href="#SimHei-31" x="100"/>
       <use xlink:href="#SimHei-30" x="150"/>
      </g>
     </g>
    </g>
    <g id="xtick_53">
     <g id="line2d_65">
      <g>
       <use xlink:href="#m17f51bda77" x="5659.411765" y="1260" style="stroke: #000000; stroke-width: 0.8"/>
      </g>
     </g>
     <g id="text_67">
      <!-- 2011 -->
      <g transform="translate(5623.141745 1346.769623)rotate(-30)scale(0.5 -0.5)">
       <use xlink:href="#SimHei-32"/>
       <use xlink:href="#SimHei-30" x="50"/>
       <use xlink:href="#SimHei-31" x="100"/>
       <use xlink:href="#SimHei-31" x="150"/>
      </g>
     </g>
    </g>
    <g id="xtick_54">
     <g id="line2d_66">
      <g>
       <use xlink:href="#m17f51bda77" x="5741.470588" y="1260" style="stroke: #000000; stroke-width: 0.8"/>
      </g>
     </g>
     <g id="text_68">
      <!-- 2012 -->
      <g transform="translate(5705.200568 1346.769623)rotate(-30)scale(0.5 -0.5)">
       <use xlink:href="#SimHei-32"/>
       <use xlink:href="#SimHei-30" x="50"/>
       <use xlink:href="#SimHei-31" x="100"/>
       <use xlink:href="#SimHei-32" x="150"/>
      </g>
     </g>
    </g>
    <g id="xtick_55">
     <g id="line2d_67">
      <g>
       <use xlink:href="#m17f51bda77" x="5823.529412" y="1260" style="stroke: #000000; stroke-width: 0.8"/>
      </g>
     </g>
     <g id="text_69">
      <!-- 2013 -->
      <g transform="translate(5787.259392 1346.769623)rotate(-30)scale(0.5 -0.5)">
       <use xlink:href="#SimHei-32"/>
       <use xlink:href="#SimHei-30" x="50"/>
       <use xlink:href="#SimHei-31" x="100"/>
       <use xlink:href="#SimHei-33" x="150"/>
      </g>
     </g>
    </g>
    <g id="xtick_56">
     <g id="line2d_68">
      <g>
       <use xlink:href="#m17f51bda77" x="5905.588235" y="1260" style="stroke: #000000; stroke-width: 0.8"/>
      </g>
     </g>
     <g id="text_70">
      <!-- 2014 -->
      <g transform="translate(5869.318215 1346.769623)rotate(-30)scale(0.5 -0.5)">
       <use xlink:href="#SimHei-32"/>
       <use xlink:href="#SimHei-30" x="50"/>
       <use xlink:href="#SimHei-31" x="100"/>
       <use xlink:href="#SimHei-34" x="150"/>
      </g>
     </g>
    </g>
    <g id="xtick_57">
     <g id="line2d_69">
      <g>
       <use xlink:href="#m17f51bda77" x="5987.647059" y="1260" style="stroke: #000000; stroke-width: 0.8"/>
      </g>
     </g>
     <g id="text_71">
      <!-- 2015 -->
      <g transform="translate(5951.377039 1346.769623)rotate(-30)scale(0.5 -0.5)">
       <use xlink:href="#SimHei-32"/>
       <use xlink:href="#SimHei-30" x="50"/>
       <use xlink:href="#SimHei-31" x="100"/>
       <use xlink:href="#SimHei-35" x="150"/>
      </g>
     </g>
    </g>
    <g id="xtick_58">
     <g id="line2d_70">
      <g>
       <use xlink:href="#m17f51bda77" x="6069.705882" y="1260" style="stroke: #000000; stroke-width: 0.8"/>
      </g>
     </g>
     <g id="text_72">
      <!-- 2016 -->
      <g transform="translate(6033.435862 1346.769623)rotate(-30)scale(0.5 -0.5)">
       <use xlink:href="#SimHei-32"/>
       <use xlink:href="#SimHei-30" x="50"/>
       <use xlink:href="#SimHei-31" x="100"/>
       <use xlink:href="#SimHei-36" x="150"/>
      </g>
     </g>
    </g>
    <g id="xtick_59">
     <g id="line2d_71">
      <g>
       <use xlink:href="#m17f51bda77" x="6151.764706" y="1260" style="stroke: #000000; stroke-width: 0.8"/>
      </g>
     </g>
     <g id="text_73">
      <!-- 2017 -->
      <g transform="translate(6115.494686 1346.769623)rotate(-30)scale(0.5 -0.5)">
       <use xlink:href="#SimHei-32"/>
       <use xlink:href="#SimHei-30" x="50"/>
       <use xlink:href="#SimHei-31" x="100"/>
       <use xlink:href="#SimHei-37" x="150"/>
      </g>
     </g>
    </g>
    <g id="xtick_60">
     <g id="line2d_72">
      <g>
       <use xlink:href="#m17f51bda77" x="6233.823529" y="1260" style="stroke: #000000; stroke-width: 0.8"/>
      </g>
     </g>
     <g id="text_74">
      <!-- 2018 -->
      <g transform="translate(6197.553509 1346.769623)rotate(-30)scale(0.5 -0.5)">
       <use xlink:href="#SimHei-32"/>
       <use xlink:href="#SimHei-30" x="50"/>
       <use xlink:href="#SimHei-31" x="100"/>
       <use xlink:href="#SimHei-38" x="150"/>
      </g>
     </g>
    </g>
    <g id="xtick_61">
     <g id="line2d_73">
      <g>
       <use xlink:href="#m17f51bda77" x="6315.882353" y="1260" style="stroke: #000000; stroke-width: 0.8"/>
      </g>
     </g>
     <g id="text_75">
      <!-- 2019 -->
      <g transform="translate(6279.612333 1346.769623)rotate(-30)scale(0.5 -0.5)">
       <use xlink:href="#SimHei-32"/>
       <use xlink:href="#SimHei-30" x="50"/>
       <use xlink:href="#SimHei-31" x="100"/>
       <use xlink:href="#SimHei-39" x="150"/>
      </g>
     </g>
    </g>
    <g id="xtick_62">
     <g id="line2d_74">
      <g>
       <use xlink:href="#m17f51bda77" x="6397.941176" y="1260" style="stroke: #000000; stroke-width: 0.8"/>
      </g>
     </g>
     <g id="text_76">
      <!-- 2020 -->
      <g transform="translate(6361.671156 1346.769623)rotate(-30)scale(0.5 -0.5)">
       <use xlink:href="#SimHei-32"/>
       <use xlink:href="#SimHei-30" x="50"/>
       <use xlink:href="#SimHei-32" x="100"/>
       <use xlink:href="#SimHei-30" x="150"/>
      </g>
     </g>
    </g>
    <g id="xtick_63">
     <g id="line2d_75">
      <g>
       <use xlink:href="#m17f51bda77" x="6480" y="1260" style="stroke: #000000; stroke-width: 0.8"/>
      </g>
     </g>
     <g id="text_77">
      <!-- 2021 -->
      <g transform="translate(6443.72998 1346.769623)rotate(-30)scale(0.5 -0.5)">
       <use xlink:href="#SimHei-32"/>
       <use xlink:href="#SimHei-30" x="50"/>
       <use xlink:href="#SimHei-32" x="100"/>
       <use xlink:href="#SimHei-31" x="150"/>
      </g>
     </g>
    </g>
   </g>
   <g id="matplotlib.axis_6">
    <g id="ytick_13">
     <g id="line2d_76">
      <g>
       <use xlink:href="#m0f4f0f8870" x="4838.823529" y="1217.276399" style="stroke: #000000; stroke-width: 0.8"/>
      </g>
     </g>
     <g id="text_78">
      <!-- 0 -->
      <g transform="translate(4806.823529 1234.463899)scale(0.5 -0.5)">
       <use xlink:href="#SimHei-30"/>
      </g>
     </g>
    </g>
    <g id="ytick_14">
     <g id="line2d_77">
      <g>
       <use xlink:href="#m0f4f0f8870" x="4838.823529" y="1095.55674" style="stroke: #000000; stroke-width: 0.8"/>
      </g>
     </g>
     <g id="text_79">
      <!-- 10 -->
      <g transform="translate(4781.823529 1112.74424)scale(0.5 -0.5)">
       <use xlink:href="#SimHei-31"/>
       <use xlink:href="#SimHei-30" x="50"/>
      </g>
     </g>
    </g>
    <g id="ytick_15">
     <g id="line2d_78">
      <g>
       <use xlink:href="#m0f4f0f8870" x="4838.823529" y="973.83708" style="stroke: #000000; stroke-width: 0.8"/>
      </g>
     </g>
     <g id="text_80">
      <!-- 20 -->
      <g transform="translate(4781.823529 991.02458)scale(0.5 -0.5)">
       <use xlink:href="#SimHei-32"/>
       <use xlink:href="#SimHei-30" x="50"/>
      </g>
     </g>
    </g>
    <g id="ytick_16">
     <g id="line2d_79">
      <g>
       <use xlink:href="#m0f4f0f8870" x="4838.823529" y="852.117421" style="stroke: #000000; stroke-width: 0.8"/>
      </g>
     </g>
     <g id="text_81">
      <!-- 30 -->
      <g transform="translate(4781.823529 869.304921)scale(0.5 -0.5)">
       <use xlink:href="#SimHei-33"/>
       <use xlink:href="#SimHei-30" x="50"/>
      </g>
     </g>
    </g>
    <g id="ytick_17">
     <g id="line2d_80">
      <g>
       <use xlink:href="#m0f4f0f8870" x="4838.823529" y="730.397761" style="stroke: #000000; stroke-width: 0.8"/>
      </g>
     </g>
     <g id="text_82">
      <!-- 40 -->
      <g transform="translate(4781.823529 747.585261)scale(0.5 -0.5)">
       <use xlink:href="#SimHei-34"/>
       <use xlink:href="#SimHei-30" x="50"/>
      </g>
     </g>
    </g>
    <g id="ytick_18">
     <g id="line2d_81">
      <g>
       <use xlink:href="#m0f4f0f8870" x="4838.823529" y="608.678101" style="stroke: #000000; stroke-width: 0.8"/>
      </g>
     </g>
     <g id="text_83">
      <!-- 50 -->
      <g transform="translate(4781.823529 625.865601)scale(0.5 -0.5)">
       <use xlink:href="#SimHei-35"/>
       <use xlink:href="#SimHei-30" x="50"/>
      </g>
     </g>
    </g>
    <g id="ytick_19">
     <g id="line2d_82">
      <g>
       <use xlink:href="#m0f4f0f8870" x="4838.823529" y="486.958442" style="stroke: #000000; stroke-width: 0.8"/>
      </g>
     </g>
     <g id="text_84">
      <!-- 60 -->
      <g transform="translate(4781.823529 504.145942)scale(0.5 -0.5)">
       <use xlink:href="#SimHei-36"/>
       <use xlink:href="#SimHei-30" x="50"/>
      </g>
     </g>
    </g>
    <g id="ytick_20">
     <g id="line2d_83">
      <g>
       <use xlink:href="#m0f4f0f8870" x="4838.823529" y="365.238782" style="stroke: #000000; stroke-width: 0.8"/>
      </g>
     </g>
     <g id="text_85">
      <!-- 70 -->
      <g transform="translate(4781.823529 382.426282)scale(0.5 -0.5)">
       <use xlink:href="#SimHei-37"/>
       <use xlink:href="#SimHei-30" x="50"/>
      </g>
     </g>
    </g>
    <g id="ytick_21">
     <g id="line2d_84">
      <g>
       <use xlink:href="#m0f4f0f8870" x="4838.823529" y="243.519122" style="stroke: #000000; stroke-width: 0.8"/>
      </g>
     </g>
     <g id="text_86">
      <!-- 80 -->
      <g transform="translate(4781.823529 260.706622)scale(0.5 -0.5)">
       <use xlink:href="#SimHei-38"/>
       <use xlink:href="#SimHei-30" x="50"/>
      </g>
     </g>
    </g>
   </g>
   <g id="patch_13">
    <path d="M 4838.823529 1260 
L 4838.823529 172.8 
" style="fill: none; stroke: #000000; stroke-width: 0.8; stroke-linejoin: miter; stroke-linecap: square"/>
   </g>
   <g id="patch_14">
    <path d="M 6480 1260 
L 6480 172.8 
" style="fill: none; stroke: #000000; stroke-width: 0.8; stroke-linejoin: miter; stroke-linecap: square"/>
   </g>
   <g id="patch_15">
    <path d="M 4838.823529 1260 
L 6480 1260 
" style="fill: none; stroke: #000000; stroke-width: 0.8; stroke-linejoin: miter; stroke-linecap: square"/>
   </g>
   <g id="patch_16">
    <path d="M 4838.823529 172.8 
L 6480 172.8 
" style="fill: none; stroke: #000000; stroke-width: 0.8; stroke-linejoin: miter; stroke-linecap: square"/>
   </g>
   <g id="text_87">
    <!-- 利润总额(%) -->
    <g transform="translate(5521.911765 166.55)scale(0.5 -0.5)">
     <defs>
      <path id="SimHei-5229" d="M 2400 2650 
Q 2950 2150 3500 1525 
Q 3325 1375 3125 1150 
Q 2775 1675 2400 2075 
L 2400 225 
Q 2400 -375 2425 -675 
L 1875 -675 
Q 1900 -350 1900 225 
L 1900 1975 
Q 1625 1450 1375 1100 
Q 1125 750 725 275 
Q 575 525 300 700 
Q 850 1150 1287 1837 
Q 1725 2525 1850 2950 
L 1375 2950 
Q 775 2950 500 2925 
L 500 3400 
Q 800 3375 1375 3375 
L 1900 3375 
L 1900 4350 
Q 1400 4250 825 4150 
Q 750 4400 625 4625 
Q 1050 4650 1800 4800 
Q 2550 4950 3225 5175 
Q 3350 4875 3550 4650 
Q 3050 4575 2400 4450 
L 2400 3375 
L 2825 3375 
Q 3350 3375 3750 3400 
L 3750 2925 
Q 3350 2950 2850 2950 
L 2400 2950 
L 2400 2650 
z
M 5775 5125 
Q 5750 4875 5750 4275 
L 5750 -100 
Q 5750 -400 5512 -487 
Q 5275 -575 4675 -675 
Q 4600 -300 4500 -75 
Q 5025 -100 5137 -50 
Q 5250 0 5250 150 
L 5250 4300 
Q 5250 4650 5225 5125 
L 5775 5125 
z
M 4625 4100 
Q 4600 3800 4600 3300 
L 4600 1725 
Q 4600 1200 4625 825 
L 4075 825 
Q 4100 1275 4100 1725 
L 4100 3300 
Q 4100 3700 4075 4100 
L 4625 4100 
z
" transform="scale(0.015625)"/>
      <path id="SimHei-6da6" d="M 6025 4725 
Q 6000 4325 6000 3750 
L 6000 -125 
Q 6000 -400 5800 -512 
Q 5600 -625 5050 -700 
Q 4975 -450 4750 -125 
Q 5225 -150 5375 -112 
Q 5525 -75 5525 150 
L 5525 4300 
L 4500 4300 
Q 4175 4300 3750 4275 
L 3750 4750 
Q 4125 4725 4500 4725 
L 6025 4725 
z
M 4350 3575 
Q 4800 3575 5075 3600 
L 5075 3150 
Q 4750 3175 4250 3175 
L 4250 2300 
Q 4625 2300 4950 2325 
L 4950 1875 
Q 4650 1925 4250 1925 
L 4250 1000 
Q 4925 1000 5175 1025 
L 5175 600 
Q 4925 625 4400 625 
L 3575 625 
Q 3100 625 2825 600 
L 2825 1025 
Q 3175 1000 3800 1000 
L 3800 1925 
Q 3350 1925 3050 1875 
L 3050 2325 
Q 3325 2300 3800 2300 
L 3800 3175 
Q 3375 3175 2950 3150 
L 2950 3600 
Q 3375 3575 3800 3575 
L 4350 3575 
z
M 2575 3850 
Q 2550 3425 2550 3025 
L 2550 175 
Q 2550 -200 2575 -700 
L 2050 -700 
Q 2075 -175 2075 150 
L 2075 3025 
Q 2075 3475 2050 3850 
L 2575 3850 
z
M 1675 1500 
Q 1525 1275 1250 500 
Q 975 -275 850 -625 
Q 600 -425 250 -300 
Q 500 -25 812 725 
Q 1125 1475 1200 1800 
Q 1425 1625 1675 1500 
z
M 525 3600 
Q 1125 3200 1625 2825 
Q 1400 2600 1250 2400 
Q 800 2825 225 3225 
Q 400 3375 525 3600 
z
M 975 5025 
Q 1475 4625 1800 4250 
Q 1600 4125 1350 3925 
Q 1025 4375 600 4750 
Q 850 4875 975 5025 
z
M 2850 4100 
Q 2600 4625 2325 5000 
Q 2525 5100 2750 5250 
Q 3050 4825 3300 4375 
Q 3050 4200 2850 4100 
z
" transform="scale(0.015625)"/>
      <path id="SimHei-989d" d="M 1925 3700 
Q 1725 3550 1550 3350 
L 2950 3350 
Q 2875 3150 2700 2875 
Q 2525 2600 2300 2300 
Q 2500 2200 2712 2075 
Q 2925 1950 3275 1725 
Q 3125 1575 2950 1325 
Q 2700 1525 2475 1662 
Q 2250 1800 1950 1950 
Q 1575 1650 1150 1375 
L 2800 1375 
Q 2775 950 2775 500 
Q 2775 50 2800 -450 
L 2325 -450 
L 2325 -50 
L 1325 -50 
L 1325 -575 
L 875 -575 
Q 900 -75 900 275 
L 900 1175 
Q 675 1075 550 1000 
Q 400 1225 225 1400 
Q 625 1550 975 1762 
Q 1325 1975 1550 2200 
Q 1300 2350 1075 2475 
Q 1175 2625 1350 2800 
Q 1625 2650 1925 2500 
Q 2150 2750 2300 3000 
L 1300 3000 
Q 1200 2875 1025 2687 
Q 850 2500 650 2275 
Q 475 2425 250 2575 
Q 650 2875 937 3237 
Q 1225 3600 1375 3925 
Q 1650 3800 1925 3700 
z
M 4150 4400 
Q 3775 4400 3375 4375 
L 3375 4825 
Q 3750 4800 4200 4800 
L 5300 4800 
Q 5600 4800 6000 4825 
L 6000 4375 
Q 5625 4400 5300 4400 
L 4950 4400 
Q 4850 3975 4725 3525 
L 5750 3525 
Q 5725 3125 5725 2775 
L 5725 1625 
Q 5725 1300 5750 825 
L 5300 825 
L 5300 3175 
L 3925 3175 
L 3925 800 
L 3450 800 
Q 3475 1275 3475 1650 
L 3475 2800 
Q 3475 3175 3450 3525 
L 4300 3525 
Q 4400 4025 4450 4400 
L 4150 4400 
z
M 2050 5100 
Q 2100 4825 2200 4475 
L 3225 4475 
Q 3200 4275 3200 4075 
Q 3200 3875 3225 3675 
L 2775 3675 
L 2775 4100 
L 875 4100 
L 875 3500 
L 400 3500 
Q 425 3775 425 4000 
Q 425 4250 400 4475 
L 1650 4475 
Q 1550 4750 1475 5000 
Q 1800 5050 2050 5100 
z
M 4925 2725 
Q 4850 2425 4837 2025 
Q 4825 1625 4712 1175 
Q 4600 725 4262 250 
Q 3925 -225 3250 -675 
Q 3050 -425 2850 -250 
Q 3375 -25 3687 262 
Q 4000 550 4162 937 
Q 4325 1325 4350 1750 
Q 4375 2175 4375 2775 
Q 4575 2750 4925 2725 
z
M 2325 325 
L 2325 1025 
L 1325 1025 
L 1325 325 
L 2325 325 
z
M 5075 800 
Q 5300 575 5487 400 
Q 5675 225 6025 -100 
Q 5800 -275 5600 -500 
Q 5450 -275 5275 -87 
Q 5100 100 4675 400 
Q 4875 575 5075 800 
z
" transform="scale(0.015625)"/>
     </defs>
     <use xlink:href="#SimHei-5229"/>
     <use xlink:href="#SimHei-6da6" x="100"/>
     <use xlink:href="#SimHei-603b" x="200"/>
     <use xlink:href="#SimHei-989d" x="300"/>
     <use xlink:href="#SimHei-28" x="400"/>
     <use xlink:href="#SimHei-25" x="450"/>
     <use xlink:href="#SimHei-29" x="500"/>
    </g>
   </g>
  </g>
 </g>
 <defs>
  <clipPath id="pb6276f90bc">
   <rect x="900" y="172.8" width="1641.176471" height="1087.2"/>
  </clipPath>
  <clipPath id="pbcbed941b7">
   <rect x="2869.411765" y="172.8" width="1641.176471" height="1087.2"/>
  </clipPath>
  <clipPath id="pd743b69bfc">
   <rect x="4838.823529" y="172.8" width="1641.176471" height="1087.2"/>
  </clipPath>
 </defs>
</svg>
